运行 java测试 案例 com.example.demo.FFmpegJNITest
sbc run -t -v /home/user/JAVA-TEST/java-rtf-test/ffmpeg/files:/tmp@/home/user/JAVA-TEST/java-rtf-test/rmi.sh:/opt/app/lib/logback-classic-1.2.3.jar@/home/user/JAVA-TEST/java-rtf-test/test-classes/com:/opt/app/test-classes/com -p docker.bplatform.demo/java_rtf_ft:2.1 docker.bplatform.demo/java_rtf_test_all:1.0  /opt/app/runTest com.example.demo.FFmpegJNITest encode_video /tmp/02.yuv /tmp/02.mpg
TEST_DIR=/opt/app
/usr/lib/jvm/java-11-openjdk-arm64/bin/java -classpath /opt/app/lib/*:/opt/app/classes:/opt/app/test-classes com.example.demo.FFmpegJNITest encode_video /tmp/02.yuv /tmp/02.mpg
视频编码
Output #0, mpeg, to '/tmp/02.mpg':
    Stream #0:0: Video: mpeg1video, yuv420p, 640x480, q=2-31, 400 kb/s, 25 tbn
[48;5;0m[38;5;213m[mpeg @ 0xfffda4b15280] [0m[48;5;0m[38;5;226mVBV buffer size not set, using default size of 230KB
If you want the mpeg file to be compliant to some specification
Like DVD, VCD or others, make sure you set the correct buffer size
[0mpts:0 pts_time:0 dts:-3600 dts_time:-0.04 duration:0 duration_time:0 stream_index:0
pts:3600 pts_time:0.04 dts:0 dts_time:0 duration:0 duration_time:0 stream_index:0
[48;5;0m[38;5;213m[mpeg @ 0xfffda4b15280] [0m[48;5;0m[38;5;196mbuffer underflow st=0 bufi=10406 size=25734
[0m[48;5;0m[38;5;213m[mpeg @ 0xfffda4b15280] [0m[48;5;0m[38;5;196mbuffer underflow st=0 bufi=12447 size=25734
[0m[48;5;0m[38;5;213m[mpeg @ 0xfffda4b15280] [0m[48;5;0m[38;5;196mbuffer underflow st=0 bufi=14488 size=25734
[0m[48;5;0m[38;5;213m[mpeg @ 0xfffda4b15280] [0m[48;5;0m[38;5;196mbuffer underflow st=0 bufi=16529 size=25734
[0m[48;5;0m[38;5;213m[mpeg @ 0xfffda4b15280] [0m[48;5;0m[38;5;196mbuffer underflow st=0 bufi=18570 size=25734
[0m[48;5;0m[38;5;213m[mpeg @ 0xfffda4b15280] [0m[48;5;0m[38;5;196mbuffer underflow st=0 bufi=20611 size=25734
[0m[48;5;0m[38;5;213m[mpeg @ 0xfffda4b15280] [0m[48;5;0m[38;5;196mbuffer underflow st=0 bufi=22652 size=25734
[0m[48;5;0m[38;5;213m[mpeg @ 0xfffda4b15280] [0m[48;5;0m[38;5;196mbuffer underflow st=0 bufi=24693 size=25734
[0mpts:7200 pts_time:0.08 dts:3600 dts_time:0.04 duration:0 duration_time:0 stream_index:0
[48;5;0m[38;5;213m[mpeg @ 0xfffda4b15280] [0m[48;5;0m[38;5;196mbuffer underflow st=0 bufi=991 size=9512
[0m[48;5;0m[38;5;213m[mpeg @ 0xfffda4b15280] [0m[48;5;0m[38;5;196mbuffer underflow st=0 bufi=3032 size=9512
[0m[48;5;0m[38;5;213m[mpeg @ 0xfffda4b15280] [0m[48;5;0m[38;5;196mbuffer underflow st=0 bufi=5073 size=9512
[0m[48;5;0m[38;5;213m[mpeg @ 0xfffda4b15280] [0m[48;5;0m[38;5;196mbuffer underflow st=0 bufi=7114 size=9512
[0m[48;5;0m[38;5;213m[mpeg @ 0xfffda4b15280] [0m[48;5;0m[38;5;196mbuffer underflow st=0 bufi=9155 size=9512
[0mpts:10800 pts_time:0.12 dts:7200 dts_time:0.08 duration:0 duration_time:0 stream_index:0
[48;5;0m[38;5;213m[mpeg @ 0xfffda4b15280] [0m[48;5;0m[38;5;196mbuffer underflow st=0 bufi=1675 size=34030
[0m[48;5;0m[38;5;213m[mpeg @ 0xfffda4b15280] [0m[48;5;0m[38;5;196mbuffer underflow st=0 bufi=3716 size=34030
[0m[48;5;0m[38;5;213m[mpeg @ 0xfffda4b15280] [0m[48;5;0m[38;5;196mbuffer underflow st=0 bufi=5757 size=34030
[0m[48;5;0m[38;5;213m[mpeg @ 0xfffda4b15280] [0m[48;5;0m[38;5;196mbuffer underflow st=0 bufi=7798 size=34030
[0m[48;5;0m[38;5;213m[mpeg @ 0xfffda4b15280] [0m[48;5;0m[38;5;196mbuffer underflow st=0 bufi=9839 size=34030
[0m[48;5;0m[38;5;213m[mpeg @ 0xfffda4b15280] [0m[48;5;0m[38;5;196mbuffer underflow st=0 bufi=11880 size=34030
[0m[48;5;0m[38;5;213m[mpeg @ 0xfffda4b15280] [0m[48;5;0m[38;5;196mbuffer underflow st=0 bufi=13921 size=34030
[0m[48;5;0m[38;5;213m[mpeg @ 0xfffda4b15280] [0m[48;5;0m[38;5;196mbuffer underflow st=0 bufi=15962 size=34030
[0m[48;5;0m[38;5;213m[mpeg @ 0xfffda4b15280] [0m[48;5;0m[38;5;196mbuffer underflow st=0 bufi=18003 size=34030
[0m[48;5;0m[38;5;213m[mpeg @ 0xfffda4b15280] [0m[48;5;0m[38;5;196mbuffer underflow st=0 bufi=20044 size=34030
[0m[48;5;0m[38;5;213m[mpeg @ 0xfffda4b15280] [0m[48;5;0m[38;5;196mbuffer underflow st=0 bufi=22085 size=34030
[0m[48;5;0m[38;5;213m[mpeg @ 0xfffda4b15280] [0m[48;5;0m[38;5;196mbuffer underflow st=0 bufi=24126 size=34030
[0m[48;5;0m[38;5;213m[mpeg @ 0xfffda4b15280] [0m[48;5;0m[38;5;196mbuffer underflow st=0 bufi=26167 size=34030
[0m[48;5;0m[38;5;213m[mpeg @ 0xfffda4b15280] [0m[48;5;0m[38;5;196mbuffer underflow st=0 bufi=28208 size=34030
[0m[48;5;0m[38;5;213m[mpeg @ 0xfffda4b15280] [0m[48;5;0m[38;5;196mbuffer underflow st=0 bufi=30249 size=34030
[0m[48;5;0m[38;5;213m[mpeg @ 0xfffda4b15280] [0m[48;5;0m[38;5;196mbuffer underflow st=0 bufi=32290 size=34030
[0mpts:14400 pts_time:0.16 dts:10800 dts_time:0.12 duration:0 duration_time:0 stream_index:0
pts:18000 pts_time:0.2 dts:14400 dts_time:0.16 duration:0 duration_time:0 stream_index:0
[48;5;0m[38;5;213m[mpeg @ 0xfffda4b15280] [0m[48;5;0m[38;5;196mbuffer underflow st=0 bufi=292 size=293
[0mpts:21600 pts_time:0.24 dts:18000 dts_time:0.2 duration:0 duration_time:0 stream_index:0
pts:25200 pts_time:0.28 dts:21600 dts_time:0.24 duration:0 duration_time:0 stream_index:0
pts:28800 pts_time:0.32 dts:25200 dts_time:0.28 duration:0 duration_time:0 stream_index:0
[48;5;0m[38;5;213m[mpeg @ 0xfffda4b15280] [0m[48;5;0m[38;5;196mbuffer underflow st=0 bufi=1370 size=3352
[0mpts:32400 pts_time:0.36 dts:28800 dts_time:0.32 duration:0 duration_time:0 stream_index:0
[48;5;0m[38;5;213m[mpeg @ 0xfffda4b15280] [0m[48;5;0m[38;5;196mbuffer underflow st=0 bufi=50 size=146
[0mpts:36000 pts_time:0.4 dts:32400 dts_time:0.36 duration:0 duration_time:0 stream_index:0
pts:39600 pts_time:0.44 dts:36000 dts_time:0.4 duration:0 duration_time:0 stream_index:0
pts:43200 pts_time:0.48 dts:39600 dts_time:0.44 duration:0 duration_time:0 stream_index:0
[48;5;0m[38;5;213m[mpeg @ 0xfffda4b15280] [0m[48;5;0m[38;5;196mbuffer underflow st=0 bufi=1187 size=16553
[0m[48;5;0m[38;5;213m[mpeg @ 0xfffda4b15280] [0m[48;5;0m[38;5;196mbuffer underflow st=0 bufi=3228 size=16553
[0m[48;5;0m[38;5;213m[mpeg @ 0xfffda4b15280] [0m[48;5;0m[38;5;196mbuffer underflow st=0 bufi=5269 size=16553
[0m[48;5;0m[38;5;213m[mpeg @ 0xfffda4b15280] [0m[48;5;0m[38;5;196mbuffer underflow st=0 bufi=7310 size=16553
[0m[48;5;0m[38;5;213m[mpeg @ 0xfffda4b15280] [0m[48;5;0m[38;5;196mbuffer underflow st=0 bufi=9351 size=16553
[0m[48;5;0m[38;5;213m[mpeg @ 0xfffda4b15280] [0m[48;5;0m[38;5;196mbuffer underflow st=0 bufi=11392 size=16553
[0m[48;5;0m[38;5;213m[mpeg @ 0xfffda4b15280] [0m[48;5;0m[38;5;196mbuffer underflow st=0 bufi=13421 size=16553
[0m[48;5;0m[38;5;213m[mpeg @ 0xfffda4b15280] [0m[48;5;0m[38;5;196mbuffer underflow st=0 bufi=15462 size=16553
[0mpts:46800 pts_time:0.52 dts:43200 dts_time:0.48 duration:0 duration_time:0 stream_index:0
[48;5;0m[38;5;213m[mpeg @ 0xfffda4b15280] [0m[48;5;0m[38;5;196mbuffer underflow st=0 bufi=941 size=11652
[0m[48;5;0m[38;5;213m[mpeg @ 0xfffda4b15280] [0m[48;5;0m[38;5;196mbuffer underflow st=0 bufi=2982 size=11652
[0m[48;5;0m[38;5;213m[mpeg @ 0xfffda4b15280] [0m[48;5;0m[38;5;196mbuffer underflow st=0 bufi=5023 size=11652
[0m[48;5;0m[38;5;213m[mpeg @ 0xfffda4b15280] [0m[48;5;0m[38;5;196mbuffer underflow st=0 bufi=7064 size=11652
[0m[48;5;0m[38;5;213m[mpeg @ 0xfffda4b15280] [0m[48;5;0m[38;5;196mbuffer underflow st=0 bufi=9105 size=11652
[0m[48;5;0m[38;5;213m[mpeg @ 0xfffda4b15280] [0m[48;5;0m[38;5;196mbuffer underflow st=0 bufi=11146 size=11652
[0mpts:50400 pts_time:0.56 dts:46800 dts_time:0.52 duration:0 duration_time:0 stream_index:0
pts:54000 pts_time:0.6 dts:50400 dts_time:0.56 duration:0 duration_time:0 stream_index:0
[48;5;0m[38;5;213m[mpeg @ 0xfffda4b15280] [0m[48;5;0m[38;5;196mbuffer underflow st=0 bufi=433 size=9906
[0m[48;5;0m[38;5;213m[mpeg @ 0xfffda4b15280] [0m[48;5;0m[38;5;196mbuffer underflow st=0 bufi=2474 size=9906
[0m[48;5;0m[38;5;213m[mpeg @ 0xfffda4b15280] [0m[48;5;0m[38;5;196mbuffer underflow st=0 bufi=4515 size=9906
[0m[48;5;0m[38;5;213m[mpeg @ 0xfffda4b15280] [0m[48;5;0m[38;5;196mbuffer underflow st=0 bufi=6556 size=9906
[0m[48;5;0m[38;5;213m[mpeg @ 0xfffda4b15280] [0m[48;5;0m[38;5;196mbuffer underflow st=0 bufi=8597 size=9906
[0mpts:57600 pts_time:0.64 dts:54000 dts_time:0.6 duration:0 duration_time:0 stream_index:0
[48;5;0m[38;5;213m[mpeg @ 0xfffda4b15280] [0m[48;5;0m[38;5;196mbuffer underflow st=0 bufi=723 size=743
[0mpts:61200 pts_time:0.68 dts:57600 dts_time:0.64 duration:0 duration_time:0 stream_index:0
[48;5;0m[38;5;213m[mpeg @ 0xfffda4b15280] [0m[48;5;0m[38;5;196mbuffer underflow st=0 bufi=2012 size=6428
[0m[48;5;0m[38;5;213m[mpeg @ 0xfffda4b15280] [0m[48;5;0m[38;5;196mbuffer underflow st=0 bufi=4053 size=6428
[0m[48;5;0m[38;5;213m[mpeg @ 0xfffda4b15280] [0m[48;5;0m[38;5;196mbuffer underflow st=0 bufi=6094 size=6428
[0mpts:64800 pts_time:0.72 dts:61200 dts_time:0.68 duration:0 duration_time:0 stream_index:0
pts:68400 pts_time:0.76 dts:64800 dts_time:0.72 duration:0 duration_time:0 stream_index:0
[48;5;0m[38;5;213m[mpeg @ 0xfffda4b15280] [0m[48;5;0m[38;5;196mbuffer underflow st=0 bufi=1116 size=6735
[0m[48;5;0m[38;5;213m[mpeg @ 0xfffda4b15280] [0m[48;5;0m[38;5;196mbuffer underflow st=0 bufi=3157 size=6735
[0m[48;5;0m[38;5;213m[mpeg @ 0xfffda4b15280] [0m[48;5;0m[38;5;196mbuffer underflow st=0 bufi=5198 size=6735
[0mpts:72000 pts_time:0.8 dts:68400 dts_time:0.76 duration:0 duration_time:0 stream_index:0
[48;5;0m[38;5;213m[mpeg @ 0xfffda4b15280] [0m[48;5;0m[38;5;196mbuffer underflow st=0 bufi=495 size=573
[0mpts:75600 pts_time:0.84 dts:72000 dts_time:0.8 duration:0 duration_time:0 stream_index:0
[48;5;0m[38;5;213m[mpeg @ 0xfffda4b15280] [0m[48;5;0m[38;5;196mbuffer underflow st=0 bufi=1954 size=4711
[0m[48;5;0m[38;5;213m[mpeg @ 0xfffda4b15280] [0m[48;5;0m[38;5;196mbuffer underflow st=0 bufi=3995 size=4711
[0mpts:79200 pts_time:0.88 dts:75600 dts_time:0.84 duration:0 duration_time:0 stream_index:0
pts:82800 pts_time:0.92 dts:79200 dts_time:0.88 duration:0 duration_time:0 stream_index:0
[48;5;0m[38;5;213m[mpeg @ 0xfffda4b15280] [0m[48;5;0m[38;5;196mbuffer underflow st=0 bufi=819 size=7994
[0m[48;5;0m[38;5;213m[mpeg @ 0xfffda4b15280] [0m[48;5;0m[38;5;196mbuffer underflow st=0 bufi=2860 size=7994
[0m[48;5;0m[38;5;213m[mpeg @ 0xfffda4b15280] [0m[48;5;0m[38;5;196mbuffer underflow st=0 bufi=4901 size=7994
[0m[48;5;0m[38;5;213m[mpeg @ 0xfffda4b15280] [0m[48;5;0m[38;5;196mbuffer underflow st=0 bufi=6942 size=7994
[0mpts:86400 pts_time:0.96 dts:82800 dts_time:0.92 duration:0 duration_time:0 stream_index:0
[48;5;0m[38;5;213m[mpeg @ 0xfffda4b15280] [0m[48;5;0m[38;5;196mbuffer underflow st=0 bufi=980 size=13043
[0m[48;5;0m[38;5;213m[mpeg @ 0xfffda4b15280] [0m[48;5;0m[38;5;196mbuffer underflow st=0 bufi=3021 size=13043
[0m[48;5;0m[38;5;213m[mpeg @ 0xfffda4b15280] [0m[48;5;0m[38;5;196mbuffer underflow st=0 bufi=5062 size=13043
[0m[48;5;0m[38;5;213m[mpeg @ 0xfffda4b15280] [0m[48;5;0m[38;5;196mbuffer underflow st=0 bufi=7103 size=13043
[0m[48;5;0m[38;5;213m[mpeg @ 0xfffda4b15280] [0m[48;5;0m[38;5;196mbuffer underflow st=0 bufi=9144 size=13043
[0m[48;5;0m[38;5;213m[mpeg @ 0xfffda4b15280] [0m[48;5;0m[38;5;196mbuffer underflow st=0 bufi=11185 size=13043
[0mpts:90000 pts_time:1 dts:86400 dts_time:0.96 duration:0 duration_time:0 stream_index:0
[48;5;0m[38;5;213m[mpeg @ 0xfffda4b15280] [0m[48;5;0m[38;5;196mbuffer underflow st=0 bufi=174 size=2841
[0m[48;5;0m[38;5;213m[mpeg @ 0xfffda4b15280] [0m[48;5;0m[38;5;196mbuffer underflow st=0 bufi=2215 size=2841
[0mpts:93600 pts_time:1.04 dts:90000 dts_time:1 duration:0 duration_time:0 stream_index:0
pts:97200 pts_time:1.08 dts:93600 dts_time:1.04 duration:0 duration_time:0 stream_index:0
[48;5;0m[38;5;213m[mpeg @ 0xfffda4b15280] [0m[48;5;0m[38;5;196mbuffer underflow st=0 bufi=1097 size=5536
[0m[48;5;0m[38;5;213m[mpeg @ 0xfffda4b15280] [0m[48;5;0m[38;5;196mbuffer underflow st=0 bufi=3138 size=5536
[0m[48;5;0m[38;5;213m[mpeg @ 0xfffda4b15280] [0m[48;5;0m[38;5;196mbuffer underflow st=0 bufi=5179 size=5536
[0mpts:100800 pts_time:1.12 dts:97200 dts_time:1.08 duration:0 duration_time:0 stream_index:0
pts:104400 pts_time:1.16 dts:100800 dts_time:1.12 duration:0 duration_time:0 stream_index:0
[48;5;0m[38;5;213m[mpeg @ 0xfffda4b15280] [0m[48;5;0m[38;5;196mbuffer underflow st=0 bufi=1253 size=2324
[0mpts:108000 pts_time:1.2 dts:104400 dts_time:1.16 duration:0 duration_time:0 stream_index:0
[48;5;0m[38;5;213m[mpeg @ 0xfffda4b15280] [0m[48;5;0m[38;5;196mbuffer underflow st=0 bufi=961 size=1184
[0mpts:111600 pts_time:1.24 dts:108000 dts_time:1.2 duration:0 duration_time:0 stream_index:0
pts:115200 pts_time:1.28 dts:111600 dts_time:1.24 duration:0 duration_time:0 stream_index:0
pts:118800 pts_time:1.32 dts:115200 dts_time:1.28 duration:0 duration_time:0 stream_index:0
[48;5;0m[38;5;213m[mpeg @ 0xfffda4b15280] [0m[48;5;0m[38;5;196mbuffer underflow st=0 bufi=242 size=6730
[0m[48;5;0m[38;5;213m[mpeg @ 0xfffda4b15280] [0m[48;5;0m[38;5;196mbuffer underflow st=0 bufi=2283 size=6730
[0m[48;5;0m[38;5;213m[mpeg @ 0xfffda4b15280] [0m[48;5;0m[38;5;196mbuffer underflow st=0 bufi=4324 size=6730
[0m[48;5;0m[38;5;213m[mpeg @ 0xfffda4b15280] [0m[48;5;0m[38;5;196mbuffer underflow st=0 bufi=6365 size=6730
[0mpts:122400 pts_time:1.36 dts:118800 dts_time:1.32 duration:0 duration_time:0 stream_index:0
pts:126000 pts_time:1.4 dts:122400 dts_time:1.36 duration:0 duration_time:0 stream_index:0
pts:129600 pts_time:1.44 dts:126000 dts_time:1.4 duration:0 duration_time:0 stream_index:0
[48;5;0m[38;5;213m[mpeg @ 0xfffda4b15280] [0m[48;5;0m[38;5;196mbuffer underflow st=0 bufi=355 size=14806
[0m[48;5;0m[38;5;213m[mpeg @ 0xfffda4b15280] [0m[48;5;0m[38;5;196mbuffer underflow st=0 bufi=2396 size=14806
[0m[48;5;0m[38;5;213m[mpeg @ 0xfffda4b15280] [0m[48;5;0m[38;5;196mbuffer underflow st=0 bufi=4437 size=14806
[0m[48;5;0m[38;5;213m[mpeg @ 0xfffda4b15280] [0m[48;5;0m[38;5;196mbuffer underflow st=0 bufi=6478 size=14806
[0m[48;5;0m[38;5;213m[mpeg @ 0xfffda4b15280] [0m[48;5;0m[38;5;196mbuffer underflow st=0 bufi=8519 size=14806
[0m[48;5;0m[38;5;213m[mpeg @ 0xfffda4b15280] [0m[48;5;0m[38;5;196mbuffer underflow st=0 bufi=10560 size=14806
[0m[48;5;0m[38;5;213m[mpeg @ 0xfffda4b15280] [0m[48;5;0m[38;5;196mbuffer underflow st=0 bufi=12601 size=14806
[0m[48;5;0m[38;5;213m[mpeg @ 0xfffda4b15280] [0m[48;5;0m[38;5;196mbuffer underflow st=0 bufi=14642 size=14806
[0mpts:133200 pts_time:1.48 dts:129600 dts_time:1.44 duration:0 duration_time:0 stream_index:0
pts:136800 pts_time:1.52 dts:133200 dts_time:1.48 duration:0 duration_time:0 stream_index:0
pts:140400 pts_time:1.56 dts:136800 dts_time:1.52 duration:0 duration_time:0 stream_index:0
pts:144000 pts_time:1.6 dts:140400 dts_time:1.56 duration:0 duration_time:0 stream_index:0
pts:147600 pts_time:1.64 dts:144000 dts_time:1.6 duration:0 duration_time:0 stream_index:0
[48;5;0m[38;5;213m[mpeg @ 0xfffda4b15280] [0m[48;5;0m[38;5;196mbuffer underflow st=0 bufi=325 size=3864
[0m[48;5;0m[38;5;213m[mpeg @ 0xfffda4b15280] [0m[48;5;0m[38;5;196mbuffer underflow st=0 bufi=2366 size=3864
[0mpts:151200 pts_time:1.68 dts:147600 dts_time:1.64 duration:0 duration_time:0 stream_index:0
[48;5;0m[38;5;213m[mpeg @ 0xfffda4b15280] [0m[48;5;0m[38;5;196mbuffer underflow st=0 bufi=534 size=721
[0mpts:154800 pts_time:1.72 dts:151200 dts_time:1.68 duration:0 duration_time:0 stream_index:0
pts:158400 pts_time:1.76 dts:154800 dts_time:1.72 duration:0 duration_time:0 stream_index:0
pts:162000 pts_time:1.8 dts:158400 dts_time:1.76 duration:0 duration_time:0 stream_index:0
[48;5;0m[38;5;213m[mpeg @ 0xfffda4b15280] [0m[48;5;0m[38;5;196mbuffer underflow st=0 bufi=930 size=1500
[0mpts:165600 pts_time:1.84 dts:162000 dts_time:1.8 duration:0 duration_time:0 stream_index:0
[48;5;0m[38;5;213m[mpeg @ 0xfffda4b15280] [0m[48;5;0m[38;5;196mbuffer underflow st=0 bufi=1462 size=1522
[0mpts:169200 pts_time:1.88 dts:165600 dts_time:1.84 duration:0 duration_time:0 stream_index:0
pts:172800 pts_time:1.92 dts:169200 dts_time:1.88 duration:0 duration_time:0 stream_index:0
[48;5;0m[38;5;213m[mpeg @ 0xfffda4b15280] [0m[48;5;0m[38;5;196mbuffer underflow st=0 bufi=1268 size=24558
[0m[48;5;0m[38;5;213m[mpeg @ 0xfffda4b15280] [0m[48;5;0m[38;5;196mbuffer underflow st=0 bufi=3309 size=24558
[0m[48;5;0m[38;5;213m[mpeg @ 0xfffda4b15280] [0m[48;5;0m[38;5;196mbuffer underflow st=0 bufi=5350 size=24558
[0m[48;5;0m[38;5;213m[mpeg @ 0xfffda4b15280] [0m[48;5;0m[38;5;196mbuffer underflow st=0 bufi=7391 size=24558
[0m[48;5;0m[38;5;213m[mpeg @ 0xfffda4b15280] [0m[48;5;0m[38;5;196mbuffer underflow st=0 bufi=9432 size=24558
[0m[48;5;0m[38;5;213m[mpeg @ 0xfffda4b15280] [0m[48;5;0m[38;5;196mbuffer underflow st=0 bufi=11473 size=24558
[0m[48;5;0m[38;5;213m[mpeg @ 0xfffda4b15280] [0m[48;5;0m[38;5;196mbuffer underflow st=0 bufi=13514 size=24558
[0m[48;5;0m[38;5;213m[mpeg @ 0xfffda4b15280] [0m[48;5;0m[38;5;196mbuffer underflow st=0 bufi=15555 size=24558
[0m[48;5;0m[38;5;213m[mpeg @ 0xfffda4b15280] [0m[48;5;0m[38;5;196mbuffer underflow st=0 bufi=17596 size=24558
[0m[48;5;0m[38;5;213m[mpeg @ 0xfffda4b15280] [0m[48;5;0m[38;5;196mbuffer underflow st=0 bufi=19637 size=24558
[0m[48;5;0m[38;5;213m[mpeg @ 0xfffda4b15280] [0m[48;5;0m[38;5;196mbuffer underflow st=0 bufi=21678 size=24558
[0m[48;5;0m[38;5;213m[mpeg @ 0xfffda4b15280] [0m[48;5;0m[38;5;196mbuffer underflow st=0 bufi=23719 size=24558
[0mpts:176400 pts_time:1.96 dts:172800 dts_time:1.92 duration:0 duration_time:0 stream_index:0
pts:180000 pts_time:2 dts:176400 dts_time:1.96 duration:0 duration_time:0 stream_index:0
pts:183600 pts_time:2.04 dts:180000 dts_time:2 duration:0 duration_time:0 stream_index:0
[48;5;0m[38;5;213m[mpeg @ 0xfffda4b15280] [0m[48;5;0m[38;5;196mbuffer underflow st=0 bufi=417 size=422
[0mpts:187200 pts_time:2.08 dts:183600 dts_time:2.04 duration:0 duration_time:0 stream_index:0
pts:190800 pts_time:2.12 dts:187200 dts_time:2.08 duration:0 duration_time:0 stream_index:0
[48;5;0m[38;5;213m[mpeg @ 0xfffda4b15280] [0m[48;5;0m[38;5;196mbuffer underflow st=0 bufi=310 size=916
[0mpts:194400 pts_time:2.16 dts:190800 dts_time:2.12 duration:0 duration_time:0 stream_index:0
pts:198000 pts_time:2.2 dts:194400 dts_time:2.16 duration:0 duration_time:0 stream_index:0
[48;5;0m[38;5;213m[mpeg @ 0xfffda4b15280] [0m[48;5;0m[38;5;196mbuffer underflow st=0 bufi=493 size=810
[0mpts:201600 pts_time:2.24 dts:198000 dts_time:2.2 duration:0 duration_time:0 stream_index:0
pts:205200 pts_time:2.28 dts:201600 dts_time:2.24 duration:0 duration_time:0 stream_index:0
pts:208800 pts_time:2.32 dts:205200 dts_time:2.28 duration:0 duration_time:0 stream_index:0
[48;5;0m[38;5;213m[mpeg @ 0xfffda4b15280] [0m[48;5;0m[38;5;196mbuffer underflow st=0 bufi=110 size=3227
[0m[48;5;0m[38;5;213m[mpeg @ 0xfffda4b15280] [0m[48;5;0m[38;5;196mbuffer underflow st=0 bufi=2151 size=3227
[0mpts:212400 pts_time:2.36 dts:208800 dts_time:2.32 duration:0 duration_time:0 stream_index:0
pts:216000 pts_time:2.4 dts:212400 dts_time:2.36 duration:0 duration_time:0 stream_index:0
[48;5;0m[38;5;213m[mpeg @ 0xfffda4b15280] [0m[48;5;0m[38;5;196mbuffer underflow st=0 bufi=624 size=31871
[0m[48;5;0m[38;5;213m[mpeg @ 0xfffda4b15280] [0m[48;5;0m[38;5;196mbuffer underflow st=0 bufi=2665 size=31871
[0m[48;5;0m[38;5;213m[mpeg @ 0xfffda4b15280] [0m[48;5;0m[38;5;196mbuffer underflow st=0 bufi=4706 size=31871
[0m[48;5;0m[38;5;213m[mpeg @ 0xfffda4b15280] [0m[48;5;0m[38;5;196mbuffer underflow st=0 bufi=6747 size=31871
[0m[48;5;0m[38;5;213m[mpeg @ 0xfffda4b15280] [0m[48;5;0m[38;5;196mbuffer underflow st=0 bufi=8788 size=31871
[0m[48;5;0m[38;5;213m[mpeg @ 0xfffda4b15280] [0m[48;5;0m[38;5;196mbuffer underflow st=0 bufi=10829 size=31871
[0m[48;5;0m[38;5;213m[mpeg @ 0xfffda4b15280] [0m[48;5;0m[38;5;196mbuffer underflow st=0 bufi=12870 size=31871
[0m[48;5;0m[38;5;213m[mpeg @ 0xfffda4b15280] [0m[48;5;0m[38;5;196mbuffer underflow st=0 bufi=14911 size=31871
[0m[48;5;0m[38;5;213m[mpeg @ 0xfffda4b15280] [0m[48;5;0m[38;5;196mbuffer underflow st=0 bufi=16952 size=31871
[0m[48;5;0m[38;5;213m[mpeg @ 0xfffda4b15280] [0m[48;5;0m[38;5;196mbuffer underflow st=0 bufi=18993 size=31871
[0m[48;5;0m[38;5;213m[mpeg @ 0xfffda4b15280] [0m[48;5;0m[38;5;196mbuffer underflow st=0 bufi=21034 size=31871
[0m[48;5;0m[38;5;213m[mpeg @ 0xfffda4b15280] [0m[48;5;0m[38;5;196mbuffer underflow st=0 bufi=23075 size=31871
[0m[48;5;0m[38;5;213m[mpeg @ 0xfffda4b15280] [0m[48;5;0m[38;5;196mbuffer underflow st=0 bufi=25116 size=31871
[0m[48;5;0m[38;5;213m[mpeg @ 0xfffda4b15280] [0m[48;5;0m[38;5;196mbuffer underflow st=0 bufi=27157 size=31871
[0m[48;5;0m[38;5;213m[mpeg @ 0xfffda4b15280] [0m[48;5;0m[38;5;196mbuffer underflow st=0 bufi=29198 size=31871
[0m[48;5;0m[38;5;213m[mpeg @ 0xfffda4b15280] [0m[48;5;0m[38;5;196mbuffer underflow st=0 bufi=31239 size=31871
[0mpts:219600 pts_time:2.44 dts:216000 dts_time:2.4 duration:0 duration_time:0 stream_index:0
[48;5;0m[38;5;213m[mpeg @ 0xfffda4b15280] [0m[48;5;0m[38;5;196mbuffer underflow st=0 bufi=1400 size=4858
[0m[48;5;0m[38;5;213m[mpeg @ 0xfffda4b15280] [0m[48;5;0m[38;5;196mbuffer underflow st=0 bufi=3441 size=4858
[0mpts:223200 pts_time:2.48 dts:219600 dts_time:2.44 duration:0 duration_time:0 stream_index:0
pts:226800 pts_time:2.52 dts:223200 dts_time:2.48 duration:0 duration_time:0 stream_index:0
[48;5;0m[38;5;213m[mpeg @ 0xfffda4b15280] [0m[48;5;0m[38;5;196mbuffer underflow st=0 bufi=48 size=511
[0mpts:230400 pts_time:2.56 dts:226800 dts_time:2.52 duration:0 duration_time:0 stream_index:0
pts:234000 pts_time:2.6 dts:230400 dts_time:2.56 duration:0 duration_time:0 stream_index:0
[48;5;0m[38;5;213m[mpeg @ 0xfffda4b15280] [0m[48;5;0m[38;5;196mbuffer underflow st=0 bufi=1166 size=1291
[0mpts:237600 pts_time:2.64 dts:234000 dts_time:2.6 duration:0 duration_time:0 stream_index:0
pts:241200 pts_time:2.68 dts:237600 dts_time:2.64 duration:0 duration_time:0 stream_index:0
[48;5;0m[38;5;213m[mpeg @ 0xfffda4b15280] [0m[48;5;0m[38;5;196mbuffer underflow st=0 bufi=767 size=2291
[0mpts:244800 pts_time:2.72 dts:241200 dts_time:2.68 duration:0 duration_time:0 stream_index:0
pts:248400 pts_time:2.76 dts:244800 dts_time:2.72 duration:0 duration_time:0 stream_index:0
[48;5;0m[38;5;213m[mpeg @ 0xfffda4b15280] [0m[48;5;0m[38;5;196mbuffer underflow st=0 bufi=242 size=993
[0mpts:252000 pts_time:2.8 dts:248400 dts_time:2.76 duration:0 duration_time:0 stream_index:0
pts:255600 pts_time:2.84 dts:252000 dts_time:2.8 duration:0 duration_time:0 stream_index:0
[48;5;0m[38;5;213m[mpeg @ 0xfffda4b15280] [0m[48;5;0m[38;5;196mbuffer underflow st=0 bufi=424 size=2269
[0mpts:259200 pts_time:2.88 dts:255600 dts_time:2.84 duration:0 duration_time:0 stream_index:0
[48;5;0m[38;5;213m[mpeg @ 0xfffda4b15280] [0m[48;5;0m[38;5;196mbuffer underflow st=0 bufi=187 size=36553
[0m[48;5;0m[38;5;213m[mpeg @ 0xfffda4b15280] [0m[48;5;0m[38;5;196mbuffer underflow st=0 bufi=2228 size=36553
[0m[48;5;0m[38;5;213m[mpeg @ 0xfffda4b15280] [0m[48;5;0m[38;5;196mbuffer underflow st=0 bufi=4269 size=36553
[0m[48;5;0m[38;5;213m[mpeg @ 0xfffda4b15280] [0m[48;5;0m[38;5;196mbuffer underflow st=0 bufi=6310 size=36553
[0m[48;5;0m[38;5;213m[mpeg @ 0xfffda4b15280] [0m[48;5;0m[38;5;196mbuffer underflow st=0 bufi=8351 size=36553
[0m[48;5;0m[38;5;213m[mpeg @ 0xfffda4b15280] [0m[48;5;0m[38;5;196mbuffer underflow st=0 bufi=10392 size=36553
[0m[48;5;0m[38;5;213m[mpeg @ 0xfffda4b15280] [0m[48;5;0m[38;5;196mbuffer underflow st=0 bufi=12433 size=36553
[0m[48;5;0m[38;5;213m[mpeg @ 0xfffda4b15280] [0m[48;5;0m[38;5;196mbuffer underflow st=0 bufi=14462 size=36553
[0m[48;5;0m[38;5;213m[mpeg @ 0xfffda4b15280] [0m[48;5;0m[38;5;196mbuffer underflow st=0 bufi=16503 size=36553
[0m[48;5;0m[38;5;213m[mpeg @ 0xfffda4b15280] [0m[48;5;0m[38;5;196mbuffer underflow st=0 bufi=18544 size=36553
[0m[48;5;0m[38;5;213m[mpeg @ 0xfffda4b15280] [0m[48;5;0m[38;5;196mbuffer underflow st=0 bufi=20585 size=36553
[0m[48;5;0m[38;5;213m[mpeg @ 0xfffda4b15280] [0m[48;5;0m[38;5;196mbuffer underflow st=0 bufi=22626 size=36553
[0m[48;5;0m[38;5;213m[mpeg @ 0xfffda4b15280] [0m[48;5;0m[38;5;196mbuffer underflow st=0 bufi=24667 size=36553
[0m[48;5;0m[38;5;213m[mpeg @ 0xfffda4b15280] [0m[48;5;0m[38;5;196mbuffer underflow st=0 bufi=26708 size=36553
[0m[48;5;0m[38;5;213m[mpeg @ 0xfffda4b15280] [0m[48;5;0m[38;5;196mbuffer underflow st=0 bufi=28749 size=36553
[0m[48;5;0m[38;5;213m[mpeg @ 0xfffda4b15280] [0m[48;5;0m[38;5;196mbuffer underflow st=0 bufi=30790 size=36553
[0m[48;5;0m[38;5;213m[mpeg @ 0xfffda4b15280] [0m[48;5;0m[38;5;196mbuffer underflow st=0 bufi=32831 size=36553
[0m[48;5;0m[38;5;213m[mpeg @ 0xfffda4b15280] [0m[48;5;0m[38;5;196mbuffer underflow st=0 bufi=34872 size=36553
[0mpts:262800 pts_time:2.92 dts:259200 dts_time:2.88 duration:0 duration_time:0 stream_index:0
pts:266400 pts_time:2.96 dts:262800 dts_time:2.92 duration:0 duration_time:0 stream_index:0
[48;5;0m[38;5;213m[mpeg @ 0xfffda4b15280] [0m[48;5;0m[38;5;196mbuffer underflow st=0 bufi=164 size=187
[0mpts:270000 pts_time:3 dts:266400 dts_time:2.96 duration:0 duration_time:0 stream_index:0
[48;5;0m[38;5;213m[mpeg @ 0xfffda4b15280] [0m[48;5;0m[38;5;196mbuffer underflow st=0 bufi=2009 size=2747
[0mpts:273600 pts_time:3.04 dts:270000 dts_time:3 duration:0 duration_time:0 stream_index:0
pts:277200 pts_time:3.08 dts:273600 dts_time:3.04 duration:0 duration_time:0 stream_index:0
pts:280800 pts_time:3.12 dts:277200 dts_time:3.08 duration:0 duration_time:0 stream_index:0
[48;5;0m[38;5;213m[mpeg @ 0xfffda4b15280] [0m[48;5;0m[38;5;196mbuffer underflow st=0 bufi=722 size=1405
[0mpts:284400 pts_time:3.16 dts:280800 dts_time:3.12 duration:0 duration_time:0 stream_index:0
pts:288000 pts_time:3.2 dts:284400 dts_time:3.16 duration:0 duration_time:0 stream_index:0
pts:291600 pts_time:3.24 dts:288000 dts_time:3.2 duration:0 duration_time:0 stream_index:0
[48;5;0m[38;5;213m[mpeg @ 0xfffda4b15280] [0m[48;5;0m[38;5;196mbuffer underflow st=0 bufi=717 size=1102
[0mpts:295200 pts_time:3.28 dts:291600 dts_time:3.24 duration:0 duration_time:0 stream_index:0
pts:298800 pts_time:3.32 dts:295200 dts_time:3.28 duration:0 duration_time:0 stream_index:0
pts:302400 pts_time:3.36 dts:298800 dts_time:3.32 duration:0 duration_time:0 stream_index:0
[48;5;0m[38;5;213m[mpeg @ 0xfffda4b15280] [0m[48;5;0m[38;5;196mbuffer underflow st=0 bufi=974 size=51901
[0m[48;5;0m[38;5;213m[mpeg @ 0xfffda4b15280] [0m[48;5;0m[38;5;196mbuffer underflow st=0 bufi=3015 size=51901
[0m[48;5;0m[38;5;213m[mpeg @ 0xfffda4b15280] [0m[48;5;0m[38;5;196mbuffer underflow st=0 bufi=5056 size=51901
[0m[48;5;0m[38;5;213m[mpeg @ 0xfffda4b15280] [0m[48;5;0m[38;5;196mbuffer underflow st=0 bufi=7097 size=51901
[0m[48;5;0m[38;5;213m[mpeg @ 0xfffda4b15280] [0m[48;5;0m[38;5;196mbuffer underflow st=0 bufi=9138 size=51901
[0m[48;5;0m[38;5;213m[mpeg @ 0xfffda4b15280] [0m[48;5;0m[38;5;196mbuffer underflow st=0 bufi=11179 size=51901
[0m[48;5;0m[38;5;213m[mpeg @ 0xfffda4b15280] [0m[48;5;0m[38;5;196mbuffer underflow st=0 bufi=13220 size=51901
[0m[48;5;0m[38;5;213m[mpeg @ 0xfffda4b15280] [0m[48;5;0m[38;5;196mbuffer underflow st=0 bufi=15261 size=51901
[0m[48;5;0m[38;5;213m[mpeg @ 0xfffda4b15280] [0m[48;5;0m[38;5;196mbuffer underflow st=0 bufi=17302 size=51901
[0m[48;5;0m[38;5;213m[mpeg @ 0xfffda4b15280] [0m[48;5;0m[38;5;196mbuffer underflow st=0 bufi=19343 size=51901
[0m[48;5;0m[38;5;213m[mpeg @ 0xfffda4b15280] [0m[48;5;0m[38;5;196mbuffer underflow st=0 bufi=21384 size=51901
[0m[48;5;0m[38;5;213m[mpeg @ 0xfffda4b15280] [0m[48;5;0m[38;5;196mbuffer underflow st=0 bufi=23425 size=51901
[0m[48;5;0m[38;5;213m[mpeg @ 0xfffda4b15280] [0m[48;5;0m[38;5;196mbuffer underflow st=0 bufi=25466 size=51901
[0m[48;5;0m[38;5;213m[mpeg @ 0xfffda4b15280] [0m[48;5;0m[38;5;196mbuffer underflow st=0 bufi=27507 size=51901
[0m[48;5;0m[38;5;213m[mpeg @ 0xfffda4b15280] [0m[48;5;0m[38;5;196mbuffer underflow st=0 bufi=29548 size=51901
[0m[48;5;0m[38;5;213m[mpeg @ 0xfffda4b15280] [0m[48;5;0m[38;5;196mbuffer underflow st=0 bufi=31589 size=51901
[0m[48;5;0m[38;5;213m[mpeg @ 0xfffda4b15280] [0m[48;5;0m[38;5;196mbuffer underflow st=0 bufi=33630 size=51901
[0m[48;5;0m[38;5;213m[mpeg @ 0xfffda4b15280] [0m[48;5;0m[38;5;196mbuffer underflow st=0 bufi=35671 size=51901
[0m[48;5;0m[38;5;213m[mpeg @ 0xfffda4b15280] [0m[48;5;0m[38;5;196mbuffer underflow st=0 bufi=37712 size=51901
[0m[48;5;0m[38;5;213m[mpeg @ 0xfffda4b15280] [0m[48;5;0m[38;5;196mbuffer underflow st=0 bufi=39753 size=51901
[0m[48;5;0m[38;5;213m[mpeg @ 0xfffda4b15280] [0m[48;5;0m[38;5;196mbuffer underflow st=0 bufi=41794 size=51901
[0m[48;5;0m[38;5;213m[mpeg @ 0xfffda4b15280] [0m[48;5;0m[38;5;196mbuffer underflow st=0 bufi=43835 size=51901
[0m[48;5;0m[38;5;213m[mpeg @ 0xfffda4b15280] [0m[48;5;0m[38;5;196mbuffer underflow st=0 bufi=45876 size=51901
[0m[48;5;0m[38;5;213m[mpeg @ 0xfffda4b15280] [0m[48;5;0m[38;5;196mbuffer underflow st=0 bufi=47917 size=51901
[0m[48;5;0m[38;5;213m[mpeg @ 0xfffda4b15280] [0m[48;5;0m[38;5;196mbuffer underflow st=0 bufi=49958 size=51901
[0mpts:306000 pts_time:3.4 dts:302400 dts_time:3.36 duration:0 duration_time:0 stream_index:0
[48;5;0m[38;5;213m[mpeg @ 0xfffda4b15280] [0m[48;5;0m[38;5;196mbuffer underflow st=0 bufi=89 size=1791
[0mpts:309600 pts_time:3.44 dts:306000 dts_time:3.4 duration:0 duration_time:0 stream_index:0
pts:313200 pts_time:3.48 dts:309600 dts_time:3.44 duration:0 duration_time:0 stream_index:0
[48;5;0m[38;5;213m[mpeg @ 0xfffda4b15280] [0m[48;5;0m[38;5;196mbuffer underflow st=0 bufi=36 size=387
[0mpts:316800 pts_time:3.52 dts:313200 dts_time:3.48 duration:0 duration_time:0 stream_index:0
pts:320400 pts_time:3.56 dts:316800 dts_time:3.52 duration:0 duration_time:0 stream_index:0
pts:324000 pts_time:3.6 dts:320400 dts_time:3.56 duration:0 duration_time:0 stream_index:0
pts:327600 pts_time:3.64 dts:324000 dts_time:3.6 duration:0 duration_time:0 stream_index:0
[48;5;0m[38;5;213m[mpeg @ 0xfffda4b15280] [0m[48;5;0m[38;5;196mbuffer underflow st=0 bufi=158 size=438
[0mpts:331200 pts_time:3.68 dts:327600 dts_time:3.64 duration:0 duration_time:0 stream_index:0
pts:334800 pts_time:3.72 dts:331200 dts_time:3.68 duration:0 duration_time:0 stream_index:0
pts:338400 pts_time:3.76 dts:334800 dts_time:3.72 duration:0 duration_time:0 stream_index:0
pts:342000 pts_time:3.8 dts:338400 dts_time:3.76 duration:0 duration_time:0 stream_index:0
[48;5;0m[38;5;213m[mpeg @ 0xfffda4b15280] [0m[48;5;0m[38;5;196mbuffer underflow st=0 bufi=310 size=347
[0mpts:345600 pts_time:3.84 dts:342000 dts_time:3.8 duration:0 duration_time:0 stream_index:0
[48;5;0m[38;5;213m[mpeg @ 0xfffda4b15280] [0m[48;5;0m[38;5;196mbuffer underflow st=0 bufi=1995 size=51174
[0m[48;5;0m[38;5;213m[mpeg @ 0xfffda4b15280] [0m[48;5;0m[38;5;196mbuffer underflow st=0 bufi=4036 size=51174
[0m[48;5;0m[38;5;213m[mpeg @ 0xfffda4b15280] [0m[48;5;0m[38;5;196mbuffer underflow st=0 bufi=6077 size=51174
[0m[48;5;0m[38;5;213m[mpeg @ 0xfffda4b15280] [0m[48;5;0m[38;5;196mbuffer underflow st=0 bufi=8118 size=51174
[0m[48;5;0m[38;5;213m[mpeg @ 0xfffda4b15280] [0m[48;5;0m[38;5;196mbuffer underflow st=0 bufi=10159 size=51174
[0m[48;5;0m[38;5;213m[mpeg @ 0xfffda4b15280] [0m[48;5;0m[38;5;196mbuffer underflow st=0 bufi=12200 size=51174
[0m[48;5;0m[38;5;213m[mpeg @ 0xfffda4b15280] [0m[48;5;0m[38;5;196mbuffer underflow st=0 bufi=14241 size=51174
[0m[48;5;0m[38;5;213m[mpeg @ 0xfffda4b15280] [0m[48;5;0m[38;5;196mbuffer underflow st=0 bufi=16282 size=51174
[0m[48;5;0m[38;5;213m[mpeg @ 0xfffda4b15280] [0m[48;5;0m[38;5;196mbuffer underflow st=0 bufi=18311 size=51174
[0m[48;5;0m[38;5;213m[mpeg @ 0xfffda4b15280] [0m[48;5;0m[38;5;196mbuffer underflow st=0 bufi=20352 size=51174
[0m[48;5;0m[38;5;213m[mpeg @ 0xfffda4b15280] [0m[48;5;0m[38;5;196mbuffer underflow st=0 bufi=22393 size=51174
[0m[48;5;0m[38;5;213m[mpeg @ 0xfffda4b15280] [0m[48;5;0m[38;5;196mbuffer underflow st=0 bufi=24434 size=51174
[0m[48;5;0m[38;5;213m[mpeg @ 0xfffda4b15280] [0m[48;5;0m[38;5;196mbuffer underflow st=0 bufi=26475 size=51174
[0m[48;5;0m[38;5;213m[mpeg @ 0xfffda4b15280] [0m[48;5;0m[38;5;196mbuffer underflow st=0 bufi=28516 size=51174
[0m[48;5;0m[38;5;213m[mpeg @ 0xfffda4b15280] [0m[48;5;0m[38;5;196mbuffer underflow st=0 bufi=30557 size=51174
[0m[48;5;0m[38;5;213m[mpeg @ 0xfffda4b15280] [0m[48;5;0m[38;5;196mbuffer underflow st=0 bufi=32598 size=51174
[0m[48;5;0m[38;5;213m[mpeg @ 0xfffda4b15280] [0m[48;5;0m[38;5;196mbuffer underflow st=0 bufi=34639 size=51174
[0m[48;5;0m[38;5;213m[mpeg @ 0xfffda4b15280] [0m[48;5;0m[38;5;196mbuffer underflow st=0 bufi=36680 size=51174
[0m[48;5;0m[38;5;213m[mpeg @ 0xfffda4b15280] [0m[48;5;0m[38;5;196mbuffer underflow st=0 bufi=38721 size=51174
[0m[48;5;0m[38;5;213m[mpeg @ 0xfffda4b15280] [0m[48;5;0m[38;5;196mbuffer underflow st=0 bufi=40762 size=51174
[0m[48;5;0m[38;5;213m[mpeg @ 0xfffda4b15280] [0m[48;5;0m[38;5;196mbuffer underflow st=0 bufi=42803 size=51174
[0m[48;5;0m[38;5;213m[mpeg @ 0xfffda4b15280] [0m[48;5;0m[38;5;196mbuffer underflow st=0 bufi=44844 size=51174
[0m[48;5;0m[38;5;213m[mpeg @ 0xfffda4b15280] [0m[48;5;0m[38;5;196mbuffer underflow st=0 bufi=46885 size=51174
[0m[48;5;0m[38;5;213m[mpeg @ 0xfffda4b15280] [0m[48;5;0m[38;5;196mbuffer underflow st=0 bufi=48926 size=51174
[0m[48;5;0m[38;5;213m[mpeg @ 0xfffda4b15280] [0m[48;5;0m[38;5;196mbuffer underflow st=0 bufi=50967 size=51174
[0mpts:349200 pts_time:3.88 dts:345600 dts_time:3.84 duration:0 duration_time:0 stream_index:0
pts:352800 pts_time:3.92 dts:349200 dts_time:3.88 duration:0 duration_time:0 stream_index:0
[48;5;0m[38;5;213m[mpeg @ 0xfffda4b15280] [0m[48;5;0m[38;5;196mbuffer underflow st=0 bufi=1713 size=6925
[0m[48;5;0m[38;5;213m[mpeg @ 0xfffda4b15280] [0m[48;5;0m[38;5;196mbuffer underflow st=0 bufi=3754 size=6925
[0m[48;5;0m[38;5;213m[mpeg @ 0xfffda4b15280] [0m[48;5;0m[38;5;196mbuffer underflow st=0 bufi=5795 size=6925
[0mpts:356400 pts_time:3.96 dts:352800 dts_time:3.92 duration:0 duration_time:0 stream_index:0
pts:360000 pts_time:4 dts:356400 dts_time:3.96 duration:0 duration_time:0 stream_index:0
pts:363600 pts_time:4.04 dts:360000 dts_time:4 duration:0 duration_time:0 stream_index:0
[48;5;0m[38;5;213m[mpeg @ 0xfffda4b15280] [0m[48;5;0m[38;5;196mbuffer underflow st=0 bufi=716 size=21860
[0m[48;5;0m[38;5;213m[mpeg @ 0xfffda4b15280] [0m[48;5;0m[38;5;196mbuffer underflow st=0 bufi=2757 size=21860
[0m[48;5;0m[38;5;213m[mpeg @ 0xfffda4b15280] [0m[48;5;0m[38;5;196mbuffer underflow st=0 bufi=4798 size=21860
[0m[48;5;0m[38;5;213m[mpeg @ 0xfffda4b15280] [0m[48;5;0m[38;5;196mbuffer underflow st=0 bufi=6839 size=21860
[0m[48;5;0m[38;5;213m[mpeg @ 0xfffda4b15280] [0m[48;5;0m[38;5;196mbuffer underflow st=0 bufi=8880 size=21860
[0m[48;5;0m[38;5;213m[mpeg @ 0xfffda4b15280] [0m[48;5;0m[38;5;196mbuffer underflow st=0 bufi=10921 size=21860
[0m[48;5;0m[38;5;213m[mpeg @ 0xfffda4b15280] [0m[48;5;0m[38;5;196mbuffer underflow st=0 bufi=12962 size=21860
[0m[48;5;0m[38;5;213m[mpeg @ 0xfffda4b15280] [0m[48;5;0m[38;5;196mbuffer underflow st=0 bufi=15003 size=21860
[0m[48;5;0m[38;5;213m[mpeg @ 0xfffda4b15280] [0m[48;5;0m[38;5;196mbuffer underflow st=0 bufi=17044 size=21860
[0m[48;5;0m[38;5;213m[mpeg @ 0xfffda4b15280] [0m[48;5;0m[38;5;196mbuffer underflow st=0 bufi=19085 size=21860
[0m[48;5;0m[38;5;213m[mpeg @ 0xfffda4b15280] [0m[48;5;0m[38;5;196mbuffer underflow st=0 bufi=21126 size=21860
[0mpts:367200 pts_time:4.08 dts:363600 dts_time:4.04 duration:0 duration_time:0 stream_index:0
[48;5;0m[38;5;213m[mpeg @ 0xfffda4b15280] [0m[48;5;0m[38;5;196mbuffer underflow st=0 bufi=1298 size=4340
[0m[48;5;0m[38;5;213m[mpeg @ 0xfffda4b15280] [0m[48;5;0m[38;5;196mbuffer underflow st=0 bufi=3339 size=4340
[0mpts:370800 pts_time:4.12 dts:367200 dts_time:4.08 duration:0 duration_time:0 stream_index:0
[48;5;0m[38;5;213m[mpeg @ 0xfffda4b15280] [0m[48;5;0m[38;5;196mbuffer underflow st=0 bufi=1031 size=4511
[0m[48;5;0m[38;5;213m[mpeg @ 0xfffda4b15280] [0m[48;5;0m[38;5;196mbuffer underflow st=0 bufi=3072 size=4511
[0mpts:374400 pts_time:4.16 dts:370800 dts_time:4.12 duration:0 duration_time:0 stream_index:0
[48;5;0m[38;5;213m[mpeg @ 0xfffda4b15280] [0m[48;5;0m[38;5;196mbuffer underflow st=0 bufi=593 size=1965
[0mpts:378000 pts_time:4.2 dts:374400 dts_time:4.16 duration:0 duration_time:0 stream_index:0
[48;5;0m[38;5;213m[mpeg @ 0xfffda4b15280] [0m[48;5;0m[38;5;196mbuffer underflow st=0 bufi=660 size=3148
[0m[48;5;0m[38;5;213m[mpeg @ 0xfffda4b15280] [0m[48;5;0m[38;5;196mbuffer underflow st=0 bufi=2701 size=3148
[0mpts:381600 pts_time:4.24 dts:378000 dts_time:4.2 duration:0 duration_time:0 stream_index:0
[48;5;0m[38;5;213m[mpeg @ 0xfffda4b15280] [0m[48;5;0m[38;5;196mbuffer underflow st=0 bufi=1585 size=3155
[0mpts:385200 pts_time:4.28 dts:381600 dts_time:4.24 duration:0 duration_time:0 stream_index:0
[48;5;0m[38;5;213m[mpeg @ 0xfffda4b15280] [0m[48;5;0m[38;5;196mbuffer underflow st=0 bufi=462 size=1967
[0mpts:388800 pts_time:4.32 dts:385200 dts_time:4.28 duration:0 duration_time:0 stream_index:0
[48;5;0m[38;5;213m[mpeg @ 0xfffda4b15280] [0m[48;5;0m[38;5;196mbuffer underflow st=0 bufi=527 size=11682
[0m[48;5;0m[38;5;213m[mpeg @ 0xfffda4b15280] [0m[48;5;0m[38;5;196mbuffer underflow st=0 bufi=2568 size=11682
[0m[48;5;0m[38;5;213m[mpeg @ 0xfffda4b15280] [0m[48;5;0m[38;5;196mbuffer underflow st=0 bufi=4609 size=11682
[0m[48;5;0m[38;5;213m[mpeg @ 0xfffda4b15280] [0m[48;5;0m[38;5;196mbuffer underflow st=0 bufi=6650 size=11682
[0m[48;5;0m[38;5;213m[mpeg @ 0xfffda4b15280] [0m[48;5;0m[38;5;196mbuffer underflow st=0 bufi=8691 size=11682
[0m[48;5;0m[38;5;213m[mpeg @ 0xfffda4b15280] [0m[48;5;0m[38;5;196mbuffer underflow st=0 bufi=10732 size=11682
[0mpts:392400 pts_time:4.36 dts:388800 dts_time:4.32 duration:0 duration_time:0 stream_index:0
[48;5;0m[38;5;213m[mpeg @ 0xfffda4b15280] [0m[48;5;0m[38;5;196mbuffer underflow st=0 bufi=1082 size=3216
[0m[48;5;0m[38;5;213m[mpeg @ 0xfffda4b15280] [0m[48;5;0m[38;5;196mbuffer underflow st=0 bufi=3123 size=3216
[0mpts:396000 pts_time:4.4 dts:392400 dts_time:4.36 duration:0 duration_time:0 stream_index:0
pts:399600 pts_time:4.44 dts:396000 dts_time:4.4 duration:0 duration_time:0 stream_index:0
[48;5;0m[38;5;213m[mpeg @ 0xfffda4b15280] [0m[48;5;0m[38;5;196mbuffer underflow st=0 bufi=156 size=2988
[0m[48;5;0m[38;5;213m[mpeg @ 0xfffda4b15280] [0m[48;5;0m[38;5;196mbuffer underflow st=0 bufi=2197 size=2988
[0mpts:403200 pts_time:4.48 dts:399600 dts_time:4.44 duration:0 duration_time:0 stream_index:0
[48;5;0m[38;5;213m[mpeg @ 0xfffda4b15280] [0m[48;5;0m[38;5;196mbuffer underflow st=0 bufi=1241 size=1656
[0mpts:406800 pts_time:4.52 dts:403200 dts_time:4.48 duration:0 duration_time:0 stream_index:0
[48;5;0m[38;5;213m[mpeg @ 0xfffda4b15280] [0m[48;5;0m[38;5;196mbuffer underflow st=0 bufi=1617 size=1654
[0mpts:410400 pts_time:4.56 dts:406800 dts_time:4.52 duration:0 duration_time:0 stream_index:0
[48;5;0m[38;5;213m[mpeg @ 0xfffda4b15280] [0m[48;5;0m[38;5;196mbuffer underflow st=0 bufi=1968 size=3214
[0mpts:414000 pts_time:4.6 dts:410400 dts_time:4.56 duration:0 duration_time:0 stream_index:0
[48;5;0m[38;5;213m[mpeg @ 0xfffda4b15280] [0m[48;5;0m[38;5;196mbuffer underflow st=0 bufi=786 size=1722
[0mpts:417600 pts_time:4.64 dts:414000 dts_time:4.6 duration:0 duration_time:0 stream_index:0
[48;5;0m[38;5;213m[mpeg @ 0xfffda4b15280] [0m[48;5;0m[38;5;196mbuffer underflow st=0 bufi=1096 size=2379
[0mpts:421200 pts_time:4.68 dts:417600 dts_time:4.64 duration:0 duration_time:0 stream_index:0
[48;5;0m[38;5;213m[mpeg @ 0xfffda4b15280] [0m[48;5;0m[38;5;196mbuffer underflow st=0 bufi=749 size=3081
[0m[48;5;0m[38;5;213m[mpeg @ 0xfffda4b15280] [0m[48;5;0m[38;5;196mbuffer underflow st=0 bufi=2790 size=3081
[0mpts:424800 pts_time:4.72 dts:421200 dts_time:4.68 duration:0 duration_time:0 stream_index:0
[48;5;0m[38;5;213m[mpeg @ 0xfffda4b15280] [0m[48;5;0m[38;5;196mbuffer underflow st=0 bufi=1741 size=1821
[0mpts:428400 pts_time:4.76 dts:424800 dts_time:4.72 duration:0 duration_time:0 stream_index:0
[48;5;0m[38;5;213m[mpeg @ 0xfffda4b15280] [0m[48;5;0m[38;5;196mbuffer underflow st=0 bufi=1952 size=2166
[0mpts:432000 pts_time:4.8 dts:428400 dts_time:4.76 duration:0 duration_time:0 stream_index:0
[48;5;0m[38;5;213m[mpeg @ 0xfffda4b15280] [0m[48;5;0m[38;5;196mbuffer underflow st=0 bufi=1818 size=9094
[0m[48;5;0m[38;5;213m[mpeg @ 0xfffda4b15280] [0m[48;5;0m[38;5;196mbuffer underflow st=0 bufi=3859 size=9094
[0m[48;5;0m[38;5;213m[mpeg @ 0xfffda4b15280] [0m[48;5;0m[38;5;196mbuffer underflow st=0 bufi=5900 size=9094
[0m[48;5;0m[38;5;213m[mpeg @ 0xfffda4b15280] [0m[48;5;0m[38;5;196mbuffer underflow st=0 bufi=7941 size=9094
[0mpts:435600 pts_time:4.84 dts:432000 dts_time:4.8 duration:0 duration_time:0 stream_index:0
[48;5;0m[38;5;213m[mpeg @ 0xfffda4b15280] [0m[48;5;0m[38;5;196mbuffer underflow st=0 bufi=879 size=2102
[0mpts:439200 pts_time:4.88 dts:435600 dts_time:4.84 duration:0 duration_time:0 stream_index:0
[48;5;0m[38;5;213m[mpeg @ 0xfffda4b15280] [0m[48;5;0m[38;5;196mbuffer underflow st=0 bufi=809 size=2028
[0mpts:442800 pts_time:4.92 dts:439200 dts_time:4.88 duration:0 duration_time:0 stream_index:0
[48;5;0m[38;5;213m[mpeg @ 0xfffda4b15280] [0m[48;5;0m[38;5;196mbuffer underflow st=0 bufi=813 size=2714
[0mpts:446400 pts_time:4.96 dts:442800 dts_time:4.92 duration:0 duration_time:0 stream_index:0
[48;5;0m[38;5;213m[mpeg @ 0xfffda4b15280] [0m[48;5;0m[38;5;196mbuffer underflow st=0 bufi=131 size=1510
[0mpts:450000 pts_time:5 dts:446400 dts_time:4.96 duration:0 duration_time:0 stream_index:0
[48;5;0m[38;5;213m[mpeg @ 0xfffda4b15280] [0m[48;5;0m[38;5;196mbuffer underflow st=0 bufi=653 size=2422
[0mpts:453600 pts_time:5.04 dts:450000 dts_time:5 duration:0 duration_time:0 stream_index:0
[48;5;0m[38;5;213m[mpeg @ 0xfffda4b15280] [0m[48;5;0m[38;5;196mbuffer underflow st=0 bufi=263 size=2702
[0m[48;5;0m[38;5;213m[mpeg @ 0xfffda4b15280] [0m[48;5;0m[38;5;196mbuffer underflow st=0 bufi=2304 size=2702
[0mpts:457200 pts_time:5.08 dts:453600 dts_time:5.04 duration:0 duration_time:0 stream_index:0
[48;5;0m[38;5;213m[mpeg @ 0xfffda4b15280] [0m[48;5;0m[38;5;196mbuffer underflow st=0 bufi=1634 size=2757
[0mpts:460800 pts_time:5.12 dts:457200 dts_time:5.08 duration:0 duration_time:0 stream_index:0
[48;5;0m[38;5;213m[mpeg @ 0xfffda4b15280] [0m[48;5;0m[38;5;196mbuffer underflow st=0 bufi=909 size=1574
[0mpts:464400 pts_time:5.16 dts:460800 dts_time:5.12 duration:0 duration_time:0 stream_index:0
[48;5;0m[38;5;213m[mpeg @ 0xfffda4b15280] [0m[48;5;0m[38;5;196mbuffer underflow st=0 bufi=1367 size=2413
[0mpts:468000 pts_time:5.2 dts:464400 dts_time:5.16 duration:0 duration_time:0 stream_index:0
[48;5;0m[38;5;213m[mpeg @ 0xfffda4b15280] [0m[48;5;0m[38;5;196mbuffer underflow st=0 bufi=986 size=3222
[0m[48;5;0m[38;5;213m[mpeg @ 0xfffda4b15280] [0m[48;5;0m[38;5;196mbuffer underflow st=0 bufi=3027 size=3222
[0mpts:471600 pts_time:5.24 dts:468000 dts_time:5.2 duration:0 duration_time:0 stream_index:0
[48;5;0m[38;5;213m[mpeg @ 0xfffda4b15280] [0m[48;5;0m[38;5;196mbuffer underflow st=0 bufi=1837 size=1976
[0mpts:475200 pts_time:5.28 dts:471600 dts_time:5.24 duration:0 duration_time:0 stream_index:0
[48;5;0m[38;5;213m[mpeg @ 0xfffda4b15280] [0m[48;5;0m[38;5;196mbuffer underflow st=0 bufi=1893 size=10461
[0m[48;5;0m[38;5;213m[mpeg @ 0xfffda4b15280] [0m[48;5;0m[38;5;196mbuffer underflow st=0 bufi=3934 size=10461
[0m[48;5;0m[38;5;213m[mpeg @ 0xfffda4b15280] [0m[48;5;0m[38;5;196mbuffer underflow st=0 bufi=5975 size=10461
[0m[48;5;0m[38;5;213m[mpeg @ 0xfffda4b15280] [0m[48;5;0m[38;5;196mbuffer underflow st=0 bufi=8016 size=10461
[0m[48;5;0m[38;5;213m[mpeg @ 0xfffda4b15280] [0m[48;5;0m[38;5;196mbuffer underflow st=0 bufi=10057 size=10461
[0mpts:478800 pts_time:5.32 dts:475200 dts_time:5.28 duration:0 duration_time:0 stream_index:0
[48;5;0m[38;5;213m[mpeg @ 0xfffda4b15280] [0m[48;5;0m[38;5;196mbuffer underflow st=0 bufi=1628 size=2421
[0mpts:482400 pts_time:5.36 dts:478800 dts_time:5.32 duration:0 duration_time:0 stream_index:0
[48;5;0m[38;5;213m[mpeg @ 0xfffda4b15280] [0m[48;5;0m[38;5;196mbuffer underflow st=0 bufi=1239 size=2756
[0mpts:486000 pts_time:5.4 dts:482400 dts_time:5.36 duration:0 duration_time:0 stream_index:0
[48;5;0m[38;5;213m[mpeg @ 0xfffda4b15280] [0m[48;5;0m[38;5;196mbuffer underflow st=0 bufi=515 size=3221
[0m[48;5;0m[38;5;213m[mpeg @ 0xfffda4b15280] [0m[48;5;0m[38;5;196mbuffer underflow st=0 bufi=2556 size=3221
[0mpts:489600 pts_time:5.44 dts:486000 dts_time:5.4 duration:0 duration_time:0 stream_index:0
[48;5;0m[38;5;213m[mpeg @ 0xfffda4b15280] [0m[48;5;0m[38;5;196mbuffer underflow st=0 bufi=1367 size=1702
[0mpts:493200 pts_time:5.48 dts:489600 dts_time:5.44 duration:0 duration_time:0 stream_index:0
[48;5;0m[38;5;213m[mpeg @ 0xfffda4b15280] [0m[48;5;0m[38;5;196mbuffer underflow st=0 bufi=1697 size=2072
[0mpts:496800 pts_time:5.52 dts:493200 dts_time:5.48 duration:0 duration_time:0 stream_index:0
[48;5;0m[38;5;213m[mpeg @ 0xfffda4b15280] [0m[48;5;0m[38;5;196mbuffer underflow st=0 bufi=1657 size=3515
[0mpts:500400 pts_time:5.56 dts:496800 dts_time:5.52 duration:0 duration_time:0 stream_index:0
[48;5;0m[38;5;213m[mpeg @ 0xfffda4b15280] [0m[48;5;0m[38;5;196mbuffer underflow st=0 bufi=174 size=2660
[0m[48;5;0m[38;5;213m[mpeg @ 0xfffda4b15280] [0m[48;5;0m[38;5;196mbuffer underflow st=0 bufi=2215 size=2660
[0mpts:504000 pts_time:5.6 dts:500400 dts_time:5.56 duration:0 duration_time:0 stream_index:0
[48;5;0m[38;5;213m[mpeg @ 0xfffda4b15280] [0m[48;5;0m[38;5;196mbuffer underflow st=0 bufi=1587 size=2165
[0mpts:507600 pts_time:5.64 dts:504000 dts_time:5.6 duration:0 duration_time:0 stream_index:0
[48;5;0m[38;5;213m[mpeg @ 0xfffda4b15280] [0m[48;5;0m[38;5;196mbuffer underflow st=0 bufi=1454 size=2491
[0mpts:511200 pts_time:5.68 dts:507600 dts_time:5.64 duration:0 duration_time:0 stream_index:0
[48;5;0m[38;5;213m[mpeg @ 0xfffda4b15280] [0m[48;5;0m[38;5;196mbuffer underflow st=0 bufi=995 size=1509
[0mpts:514800 pts_time:5.72 dts:511200 dts_time:5.68 duration:0 duration_time:0 stream_index:0
[48;5;0m[38;5;213m[mpeg @ 0xfffda4b15280] [0m[48;5;0m[38;5;196mbuffer underflow st=0 bufi=1518 size=2586
[0mpts:518400 pts_time:5.76 dts:514800 dts_time:5.72 duration:0 duration_time:0 stream_index:0
[48;5;0m[38;5;213m[mpeg @ 0xfffda4b15280] [0m[48;5;0m[38;5;196mbuffer underflow st=0 bufi=964 size=9036
[0m[48;5;0m[38;5;213m[mpeg @ 0xfffda4b15280] [0m[48;5;0m[38;5;196mbuffer underflow st=0 bufi=3005 size=9036
[0m[48;5;0m[38;5;213m[mpeg @ 0xfffda4b15280] [0m[48;5;0m[38;5;196mbuffer underflow st=0 bufi=5046 size=9036
[0m[48;5;0m[38;5;213m[mpeg @ 0xfffda4b15280] [0m[48;5;0m[38;5;196mbuffer underflow st=0 bufi=7087 size=9036
[0mpts:522000 pts_time:5.8 dts:518400 dts_time:5.76 duration:0 duration_time:0 stream_index:0
[48;5;0m[38;5;213m[mpeg @ 0xfffda4b15280] [0m[48;5;0m[38;5;196mbuffer underflow st=0 bufi=83 size=2115
[0mpts:525600 pts_time:5.84 dts:522000 dts_time:5.8 duration:0 duration_time:0 stream_index:0
[48;5;0m[38;5;213m[mpeg @ 0xfffda4b15280] [0m[48;5;0m[38;5;196mbuffer underflow st=0 bufi=9 size=2057
[0m[48;5;0m[38;5;213m[mpeg @ 0xfffda4b15280] [0m[48;5;0m[38;5;196mbuffer underflow st=0 bufi=2050 size=2057
[0mpts:529200 pts_time:5.88 dts:525600 dts_time:5.84 duration:0 duration_time:0 stream_index:0
[48;5;0m[38;5;213m[mpeg @ 0xfffda4b15280] [0m[48;5;0m[38;5;196mbuffer underflow st=0 bufi=2025 size=2730
[0mpts:532800 pts_time:5.92 dts:529200 dts_time:5.88 duration:0 duration_time:0 stream_index:0
[48;5;0m[38;5;213m[mpeg @ 0xfffda4b15280] [0m[48;5;0m[38;5;196mbuffer underflow st=0 bufi=1327 size=1597
[0mpts:536400 pts_time:5.96 dts:532800 dts_time:5.92 duration:0 duration_time:0 stream_index:0
[48;5;0m[38;5;213m[mpeg @ 0xfffda4b15280] [0m[48;5;0m[38;5;196mbuffer underflow st=0 bufi=1762 size=2361
[0mpts:540000 pts_time:6 dts:536400 dts_time:5.96 duration:0 duration_time:0 stream_index:0
[48;5;0m[38;5;213m[mpeg @ 0xfffda4b15280] [0m[48;5;0m[38;5;196mbuffer underflow st=0 bufi=1421 size=2700
[0mpts:543600 pts_time:6.04 dts:540000 dts_time:6 duration:0 duration_time:0 stream_index:0
[48;5;0m[38;5;213m[mpeg @ 0xfffda4b15280] [0m[48;5;0m[38;5;196mbuffer underflow st=0 bufi=753 size=3010
[0m[48;5;0m[38;5;213m[mpeg @ 0xfffda4b15280] [0m[48;5;0m[38;5;196mbuffer underflow st=0 bufi=2794 size=3010
[0mpts:547200 pts_time:6.08 dts:543600 dts_time:6.04 duration:0 duration_time:0 stream_index:0
pts:550800 pts_time:6.12 dts:547200 dts_time:6.08 duration:0 duration_time:0 stream_index:0
[48;5;0m[38;5;213m[mpeg @ 0xfffda4b15280] [0m[48;5;0m[38;5;196mbuffer underflow st=0 bufi=208 size=1778
[0mpts:554400 pts_time:6.16 dts:550800 dts_time:6.12 duration:0 duration_time:0 stream_index:0
[48;5;0m[38;5;213m[mpeg @ 0xfffda4b15280] [0m[48;5;0m[38;5;196mbuffer underflow st=0 bufi=462 size=2586
[0m[48;5;0m[38;5;213m[mpeg @ 0xfffda4b15280] [0m[48;5;0m[38;5;196mbuffer underflow st=0 bufi=2503 size=2586
[0mpts:558000 pts_time:6.2 dts:554400 dts_time:6.16 duration:0 duration_time:0 stream_index:0
pts:561600 pts_time:6.24 dts:558000 dts_time:6.2 duration:0 duration_time:0 stream_index:0
[48;5;0m[38;5;213m[mpeg @ 0xfffda4b15280] [0m[48;5;0m[38;5;196mbuffer underflow st=0 bufi=127 size=10079
[0m[48;5;0m[38;5;213m[mpeg @ 0xfffda4b15280] [0m[48;5;0m[38;5;196mbuffer underflow st=0 bufi=2168 size=10079
[0m[48;5;0m[38;5;213m[mpeg @ 0xfffda4b15280] [0m[48;5;0m[38;5;196mbuffer underflow st=0 bufi=4209 size=10079
[0m[48;5;0m[38;5;213m[mpeg @ 0xfffda4b15280] [0m[48;5;0m[38;5;196mbuffer underflow st=0 bufi=6250 size=10079
[0m[48;5;0m[38;5;213m[mpeg @ 0xfffda4b15280] [0m[48;5;0m[38;5;196mbuffer underflow st=0 bufi=8291 size=10079
[0mpts:565200 pts_time:6.28 dts:561600 dts_time:6.24 duration:0 duration_time:0 stream_index:0
[48;5;0m[38;5;213m[mpeg @ 0xfffda4b15280] [0m[48;5;0m[38;5;196mbuffer underflow st=0 bufi=244 size=1889
[0mpts:568800 pts_time:6.32 dts:565200 dts_time:6.28 duration:0 duration_time:0 stream_index:0
[48;5;0m[38;5;213m[mpeg @ 0xfffda4b15280] [0m[48;5;0m[38;5;196mbuffer underflow st=0 bufi=387 size=2472
[0m[48;5;0m[38;5;213m[mpeg @ 0xfffda4b15280] [0m[48;5;0m[38;5;196mbuffer underflow st=0 bufi=2428 size=2472
[0mpts:572400 pts_time:6.36 dts:568800 dts_time:6.32 duration:0 duration_time:0 stream_index:0
[48;5;0m[38;5;213m[mpeg @ 0xfffda4b15280] [0m[48;5;0m[38;5;196mbuffer underflow st=0 bufi=1988 size=2847
[0mpts:576000 pts_time:6.4 dts:572400 dts_time:6.36 duration:0 duration_time:0 stream_index:0
[48;5;0m[38;5;213m[mpeg @ 0xfffda4b15280] [0m[48;5;0m[38;5;196mbuffer underflow st=0 bufi=1173 size=1550
[0mpts:579600 pts_time:6.44 dts:576000 dts_time:6.4 duration:0 duration_time:0 stream_index:0
[48;5;0m[38;5;213m[mpeg @ 0xfffda4b15280] [0m[48;5;0m[38;5;196mbuffer underflow st=0 bufi=1655 size=1731
[0mpts:583200 pts_time:6.48 dts:579600 dts_time:6.44 duration:0 duration_time:0 stream_index:0
[48;5;0m[38;5;213m[mpeg @ 0xfffda4b15280] [0m[48;5;0m[38;5;196mbuffer underflow st=0 bufi=1956 size=3011
[0mpts:586800 pts_time:6.52 dts:583200 dts_time:6.48 duration:0 duration_time:0 stream_index:0
[48;5;0m[38;5;213m[mpeg @ 0xfffda4b15280] [0m[48;5;0m[38;5;196mbuffer underflow st=0 bufi=977 size=2652
[0mpts:590400 pts_time:6.56 dts:586800 dts_time:6.52 duration:0 duration_time:0 stream_index:0
[48;5;0m[38;5;213m[mpeg @ 0xfffda4b15280] [0m[48;5;0m[38;5;196mbuffer underflow st=0 bufi=357 size=1579
[0mpts:594000 pts_time:6.6 dts:590400 dts_time:6.56 duration:0 duration_time:0 stream_index:0
[48;5;0m[38;5;213m[mpeg @ 0xfffda4b15280] [0m[48;5;0m[38;5;196mbuffer underflow st=0 bufi=810 size=1947
[0mpts:597600 pts_time:6.64 dts:594000 dts_time:6.6 duration:0 duration_time:0 stream_index:0
[48;5;0m[38;5;213m[mpeg @ 0xfffda4b15280] [0m[48;5;0m[38;5;196mbuffer underflow st=0 bufi=895 size=1881
[0mpts:601200 pts_time:6.68 dts:597600 dts_time:6.64 duration:0 duration_time:0 stream_index:0
[48;5;0m[38;5;213m[mpeg @ 0xfffda4b15280] [0m[48;5;0m[38;5;196mbuffer underflow st=0 bufi=1046 size=2623
[0mpts:604800 pts_time:6.72 dts:601200 dts_time:6.68 duration:0 duration_time:0 stream_index:0
[48;5;0m[38;5;213m[mpeg @ 0xfffda4b15280] [0m[48;5;0m[38;5;196mbuffer underflow st=0 bufi=455 size=9032
[0m[48;5;0m[38;5;213m[mpeg @ 0xfffda4b15280] [0m[48;5;0m[38;5;196mbuffer underflow st=0 bufi=2496 size=9032
[0m[48;5;0m[38;5;213m[mpeg @ 0xfffda4b15280] [0m[48;5;0m[38;5;196mbuffer underflow st=0 bufi=4537 size=9032
[0m[48;5;0m[38;5;213m[mpeg @ 0xfffda4b15280] [0m[48;5;0m[38;5;196mbuffer underflow st=0 bufi=6578 size=9032
[0m[48;5;0m[38;5;213m[mpeg @ 0xfffda4b15280] [0m[48;5;0m[38;5;196mbuffer underflow st=0 bufi=8619 size=9032
[0mpts:608400 pts_time:6.76 dts:604800 dts_time:6.72 duration:0 duration_time:0 stream_index:0
[48;5;0m[38;5;213m[mpeg @ 0xfffda4b15280] [0m[48;5;0m[38;5;196mbuffer underflow st=0 bufi=1619 size=2094
[0mpts:612000 pts_time:6.8 dts:608400 dts_time:6.76 duration:0 duration_time:0 stream_index:0
[48;5;0m[38;5;213m[mpeg @ 0xfffda4b15280] [0m[48;5;0m[38;5;196mbuffer underflow st=0 bufi=1557 size=2031
[0mpts:615600 pts_time:6.84 dts:612000 dts_time:6.8 duration:0 duration_time:0 stream_index:0
[48;5;0m[38;5;213m[mpeg @ 0xfffda4b15280] [0m[48;5;0m[38;5;196mbuffer underflow st=0 bufi=1558 size=2716
[0mpts:619200 pts_time:6.88 dts:615600 dts_time:6.84 duration:0 duration_time:0 stream_index:0
[48;5;0m[38;5;213m[mpeg @ 0xfffda4b15280] [0m[48;5;0m[38;5;196mbuffer underflow st=0 bufi=874 size=1511
[0mpts:622800 pts_time:6.92 dts:619200 dts_time:6.88 duration:0 duration_time:0 stream_index:0
[48;5;0m[38;5;213m[mpeg @ 0xfffda4b15280] [0m[48;5;0m[38;5;196mbuffer underflow st=0 bufi=1395 size=2375
[0mpts:626400 pts_time:6.96 dts:622800 dts_time:6.92 duration:0 duration_time:0 stream_index:0
[48;5;0m[38;5;213m[mpeg @ 0xfffda4b15280] [0m[48;5;0m[38;5;196mbuffer underflow st=0 bufi=1052 size=2666
[0mpts:630000 pts_time:7 dts:626400 dts_time:6.96 duration:0 duration_time:0 stream_index:0
[48;5;0m[38;5;213m[mpeg @ 0xfffda4b15280] [0m[48;5;0m[38;5;196mbuffer underflow st=0 bufi=418 size=2704
[0m[48;5;0m[38;5;213m[mpeg @ 0xfffda4b15280] [0m[48;5;0m[38;5;196mbuffer underflow st=0 bufi=2459 size=2704
[0mpts:633600 pts_time:7.04 dts:630000 dts_time:7 duration:0 duration_time:0 stream_index:0
pts:637200 pts_time:7.08 dts:633600 dts_time:7.04 duration:0 duration_time:0 stream_index:0
[48;5;0m[38;5;213m[mpeg @ 0xfffda4b15280] [0m[48;5;0m[38;5;196mbuffer underflow st=0 bufi=191 size=1984
[0mpts:640800 pts_time:7.12 dts:637200 dts_time:7.08 duration:0 duration_time:0 stream_index:0
[48;5;0m[38;5;213m[mpeg @ 0xfffda4b15280] [0m[48;5;0m[38;5;196mbuffer underflow st=0 bufi=239 size=2696
[0m[48;5;0m[38;5;213m[mpeg @ 0xfffda4b15280] [0m[48;5;0m[38;5;196mbuffer underflow st=0 bufi=2280 size=2696
[0mpts:644400 pts_time:7.16 dts:640800 dts_time:7.12 duration:0 duration_time:0 stream_index:0
[48;5;0m[38;5;213m[mpeg @ 0xfffda4b15280] [0m[48;5;0m[38;5;196mbuffer underflow st=0 bufi=1616 size=1666
[0mpts:648000 pts_time:7.2 dts:644400 dts_time:7.16 duration:0 duration_time:0 stream_index:0
[48;5;0m[38;5;213m[mpeg @ 0xfffda4b15280] [0m[48;5;0m[38;5;196mbuffer underflow st=0 bufi=1982 size=10452
[0m[48;5;0m[38;5;213m[mpeg @ 0xfffda4b15280] [0m[48;5;0m[38;5;196mbuffer underflow st=0 bufi=4023 size=10452
[0m[48;5;0m[38;5;213m[mpeg @ 0xfffda4b15280] [0m[48;5;0m[38;5;196mbuffer underflow st=0 bufi=6064 size=10452
[0m[48;5;0m[38;5;213m[mpeg @ 0xfffda4b15280] [0m[48;5;0m[38;5;196mbuffer underflow st=0 bufi=8105 size=10452
[0m[48;5;0m[38;5;213m[mpeg @ 0xfffda4b15280] [0m[48;5;0m[38;5;196mbuffer underflow st=0 bufi=10146 size=10452
[0mpts:651600 pts_time:7.24 dts:648000 dts_time:7.2 duration:0 duration_time:0 stream_index:0
[48;5;0m[38;5;213m[mpeg @ 0xfffda4b15280] [0m[48;5;0m[38;5;196mbuffer underflow st=0 bufi=1726 size=2456
[0mpts:655200 pts_time:7.28 dts:651600 dts_time:7.24 duration:0 duration_time:0 stream_index:0
[48;5;0m[38;5;213m[mpeg @ 0xfffda4b15280] [0m[48;5;0m[38;5;196mbuffer underflow st=0 bufi=1302 size=2778
[0mpts:658800 pts_time:7.32 dts:655200 dts_time:7.28 duration:0 duration_time:0 stream_index:0
[48;5;0m[38;5;213m[mpeg @ 0xfffda4b15280] [0m[48;5;0m[38;5;196mbuffer underflow st=0 bufi=556 size=3285
[0m[48;5;0m[38;5;213m[mpeg @ 0xfffda4b15280] [0m[48;5;0m[38;5;196mbuffer underflow st=0 bufi=2597 size=3285
[0mpts:662400 pts_time:7.36 dts:658800 dts_time:7.32 duration:0 duration_time:0 stream_index:0
[48;5;0m[38;5;213m[mpeg @ 0xfffda4b15280] [0m[48;5;0m[38;5;196mbuffer underflow st=0 bufi=1344 size=1769
[0mpts:666000 pts_time:7.4 dts:662400 dts_time:7.36 duration:0 duration_time:0 stream_index:0
[48;5;0m[38;5;213m[mpeg @ 0xfffda4b15280] [0m[48;5;0m[38;5;196mbuffer underflow st=0 bufi=1607 size=2008
[0mpts:669600 pts_time:7.44 dts:666000 dts_time:7.4 duration:0 duration_time:0 stream_index:0
[48;5;0m[38;5;213m[mpeg @ 0xfffda4b15280] [0m[48;5;0m[38;5;196mbuffer underflow st=0 bufi=1631 size=3349
[0mpts:673200 pts_time:7.48 dts:669600 dts_time:7.44 duration:0 duration_time:0 stream_index:0
[48;5;0m[38;5;213m[mpeg @ 0xfffda4b15280] [0m[48;5;0m[38;5;196mbuffer underflow st=0 bufi=302 size=3057
[0m[48;5;0m[38;5;213m[mpeg @ 0xfffda4b15280] [0m[48;5;0m[38;5;196mbuffer underflow st=0 bufi=2343 size=3057
[0mpts:676800 pts_time:7.52 dts:673200 dts_time:7.48 duration:0 duration_time:0 stream_index:0
[48;5;0m[38;5;213m[mpeg @ 0xfffda4b15280] [0m[48;5;0m[38;5;196mbuffer underflow st=0 bufi=1318 size=2143
[0mpts:680400 pts_time:7.56 dts:676800 dts_time:7.52 duration:0 duration_time:0 stream_index:0
[48;5;0m[38;5;213m[mpeg @ 0xfffda4b15280] [0m[48;5;0m[38;5;196mbuffer underflow st=0 bufi=1207 size=2676
[0mpts:684000 pts_time:7.6 dts:680400 dts_time:7.56 duration:0 duration_time:0 stream_index:0
[48;5;0m[38;5;213m[mpeg @ 0xfffda4b15280] [0m[48;5;0m[38;5;196mbuffer underflow st=0 bufi=563 size=2690
[0m[48;5;0m[38;5;213m[mpeg @ 0xfffda4b15280] [0m[48;5;0m[38;5;196mbuffer underflow st=0 bufi=2604 size=2690
[0mpts:687600 pts_time:7.64 dts:684000 dts_time:7.6 duration:0 duration_time:0 stream_index:0
[48;5;0m[38;5;213m[mpeg @ 0xfffda4b15280] [0m[48;5;0m[38;5;196mbuffer underflow st=0 bufi=1946 size=2618
[0mpts:691200 pts_time:7.68 dts:687600 dts_time:7.64 duration:0 duration_time:0 stream_index:0
[48;5;0m[38;5;213m[mpeg @ 0xfffda4b15280] [0m[48;5;0m[38;5;196mbuffer underflow st=0 bufi=1360 size=9098
[0m[48;5;0m[38;5;213m[mpeg @ 0xfffda4b15280] [0m[48;5;0m[38;5;196mbuffer underflow st=0 bufi=3401 size=9098
[0m[48;5;0m[38;5;213m[mpeg @ 0xfffda4b15280] [0m[48;5;0m[38;5;196mbuffer underflow st=0 bufi=5442 size=9098
[0m[48;5;0m[38;5;213m[mpeg @ 0xfffda4b15280] [0m[48;5;0m[38;5;196mbuffer underflow st=0 bufi=7483 size=9098
[0mpts:694800 pts_time:7.72 dts:691200 dts_time:7.68 duration:0 duration_time:0 stream_index:0
[48;5;0m[38;5;213m[mpeg @ 0xfffda4b15280] [0m[48;5;0m[38;5;196mbuffer underflow st=0 bufi=417 size=1702
[0mpts:698400 pts_time:7.76 dts:694800 dts_time:7.72 duration:0 duration_time:0 stream_index:0
[48;5;0m[38;5;213m[mpeg @ 0xfffda4b15280] [0m[48;5;0m[38;5;196mbuffer underflow st=0 bufi=747 size=1567
[0mpts:702000 pts_time:7.8 dts:698400 dts_time:7.76 duration:0 duration_time:0 stream_index:0
[48;5;0m[38;5;213m[mpeg @ 0xfffda4b15280] [0m[48;5;0m[38;5;196mbuffer underflow st=0 bufi=1212 size=2323
[0mpts:705600 pts_time:7.84 dts:702000 dts_time:7.8 duration:0 duration_time:0 stream_index:0
[48;5;0m[38;5;213m[mpeg @ 0xfffda4b15280] [0m[48;5;0m[38;5;196mbuffer underflow st=0 bufi=921 size=1352
[0mpts:709200 pts_time:7.88 dts:705600 dts_time:7.84 duration:0 duration_time:0 stream_index:0
[48;5;0m[38;5;213m[mpeg @ 0xfffda4b15280] [0m[48;5;0m[38;5;196mbuffer underflow st=0 bufi=1601 size=1959
[0mpts:712800 pts_time:7.92 dts:709200 dts_time:7.88 duration:0 duration_time:0 stream_index:0
[48;5;0m[38;5;213m[mpeg @ 0xfffda4b15280] [0m[48;5;0m[38;5;196mbuffer underflow st=0 bufi=1674 size=2439
[0mpts:716400 pts_time:7.96 dts:712800 dts_time:7.92 duration:0 duration_time:0 stream_index:0
[48;5;0m[38;5;213m[mpeg @ 0xfffda4b15280] [0m[48;5;0m[38;5;196mbuffer underflow st=0 bufi=1267 size=2343
[0mpts:720000 pts_time:8 dts:716400 dts_time:7.96 duration:0 duration_time:0 stream_index:0
[48;5;0m[38;5;213m[mpeg @ 0xfffda4b15280] [0m[48;5;0m[38;5;196mbuffer underflow st=0 bufi=956 size=1328
[0mpts:723600 pts_time:8.04 dts:720000 dts_time:8 duration:0 duration_time:0 stream_index:0
[48;5;0m[38;5;213m[mpeg @ 0xfffda4b15280] [0m[48;5;0m[38;5;196mbuffer underflow st=0 bufi=1660 size=2272
[0mpts:727200 pts_time:8.08 dts:723600 dts_time:8.04 duration:0 duration_time:0 stream_index:0
[48;5;0m[38;5;213m[mpeg @ 0xfffda4b15280] [0m[48;5;0m[38;5;196mbuffer underflow st=0 bufi=1420 size=2674
[0mpts:730800 pts_time:8.12 dts:727200 dts_time:8.08 duration:0 duration_time:0 stream_index:0
[48;5;0m[38;5;213m[mpeg @ 0xfffda4b15280] [0m[48;5;0m[38;5;196mbuffer underflow st=0 bufi=778 size=2018
[0mpts:734400 pts_time:8.16 dts:730800 dts_time:8.12 duration:0 duration_time:0 stream_index:0
[48;5;0m[38;5;213m[mpeg @ 0xfffda4b15280] [0m[48;5;0m[38;5;196mbuffer underflow st=0 bufi=792 size=10163
[0m[48;5;0m[38;5;213m[mpeg @ 0xfffda4b15280] [0m[48;5;0m[38;5;196mbuffer underflow st=0 bufi=2833 size=10163
[0m[48;5;0m[38;5;213m[mpeg @ 0xfffda4b15280] [0m[48;5;0m[38;5;196mbuffer underflow st=0 bufi=4874 size=10163
[0m[48;5;0m[38;5;213m[mpeg @ 0xfffda4b15280] [0m[48;5;0m[38;5;196mbuffer underflow st=0 bufi=6915 size=10163
[0m[48;5;0m[38;5;213m[mpeg @ 0xfffda4b15280] [0m[48;5;0m[38;5;196mbuffer underflow st=0 bufi=8956 size=10163
[0mpts:738000 pts_time:8.2 dts:734400 dts_time:8.16 duration:0 duration_time:0 stream_index:0
[48;5;0m[38;5;213m[mpeg @ 0xfffda4b15280] [0m[48;5;0m[38;5;196mbuffer underflow st=0 bufi=825 size=1889
[0mpts:741600 pts_time:8.24 dts:738000 dts_time:8.2 duration:0 duration_time:0 stream_index:0
[48;5;0m[38;5;213m[mpeg @ 0xfffda4b15280] [0m[48;5;0m[38;5;196mbuffer underflow st=0 bufi=968 size=2491
[0mpts:745200 pts_time:8.28 dts:741600 dts_time:8.24 duration:0 duration_time:0 stream_index:0
[48;5;0m[38;5;213m[mpeg @ 0xfffda4b15280] [0m[48;5;0m[38;5;196mbuffer underflow st=0 bufi=509 size=2843
[0m[48;5;0m[38;5;213m[mpeg @ 0xfffda4b15280] [0m[48;5;0m[38;5;196mbuffer underflow st=0 bufi=2550 size=2843
[0mpts:748800 pts_time:8.32 dts:745200 dts_time:8.28 duration:0 duration_time:0 stream_index:0
pts:752400 pts_time:8.36 dts:748800 dts_time:8.32 duration:0 duration_time:0 stream_index:0
[48;5;0m[38;5;213m[mpeg @ 0xfffda4b15280] [0m[48;5;0m[38;5;196mbuffer underflow st=0 bufi=112 size=1764
[0mpts:756000 pts_time:8.4 dts:752400 dts_time:8.36 duration:0 duration_time:0 stream_index:0
[48;5;0m[38;5;213m[mpeg @ 0xfffda4b15280] [0m[48;5;0m[38;5;196mbuffer underflow st=0 bufi=380 size=2993
[0m[48;5;0m[38;5;213m[mpeg @ 0xfffda4b15280] [0m[48;5;0m[38;5;196mbuffer underflow st=0 bufi=2421 size=2993
[0mpts:759600 pts_time:8.44 dts:756000 dts_time:8.4 duration:0 duration_time:0 stream_index:0
[48;5;0m[38;5;213m[mpeg @ 0xfffda4b15280] [0m[48;5;0m[38;5;196mbuffer underflow st=0 bufi=1460 size=2091
[0mpts:763200 pts_time:8.48 dts:759600 dts_time:8.44 duration:0 duration_time:0 stream_index:0
[48;5;0m[38;5;213m[mpeg @ 0xfffda4b15280] [0m[48;5;0m[38;5;196mbuffer underflow st=0 bufi=1401 size=1691
[0mpts:766800 pts_time:8.52 dts:763200 dts_time:8.48 duration:0 duration_time:0 stream_index:0
[48;5;0m[38;5;213m[mpeg @ 0xfffda4b15280] [0m[48;5;0m[38;5;196mbuffer underflow st=0 bufi=1742 size=2351
[0mpts:770400 pts_time:8.56 dts:766800 dts_time:8.52 duration:0 duration_time:0 stream_index:0
[48;5;0m[38;5;213m[mpeg @ 0xfffda4b15280] [0m[48;5;0m[38;5;196mbuffer underflow st=0 bufi=1423 size=1792
[0mpts:774000 pts_time:8.6 dts:770400 dts_time:8.56 duration:0 duration_time:0 stream_index:0
[48;5;0m[38;5;213m[mpeg @ 0xfffda4b15280] [0m[48;5;0m[38;5;196mbuffer underflow st=0 bufi=1663 size=2081
[0mpts:777600 pts_time:8.64 dts:774000 dts_time:8.6 duration:0 duration_time:0 stream_index:0
[48;5;0m[38;5;213m[mpeg @ 0xfffda4b15280] [0m[48;5;0m[38;5;196mbuffer underflow st=0 bufi=1614 size=9080
[0m[48;5;0m[38;5;213m[mpeg @ 0xfffda4b15280] [0m[48;5;0m[38;5;196mbuffer underflow st=0 bufi=3655 size=9080
[0m[48;5;0m[38;5;213m[mpeg @ 0xfffda4b15280] [0m[48;5;0m[38;5;196mbuffer underflow st=0 bufi=5696 size=9080
[0m[48;5;0m[38;5;213m[mpeg @ 0xfffda4b15280] [0m[48;5;0m[38;5;196mbuffer underflow st=0 bufi=7737 size=9080
[0mpts:781200 pts_time:8.68 dts:777600 dts_time:8.64 duration:0 duration_time:0 stream_index:0
[48;5;0m[38;5;213m[mpeg @ 0xfffda4b15280] [0m[48;5;0m[38;5;196mbuffer underflow st=0 bufi=689 size=2094
[0mpts:784800 pts_time:8.72 dts:781200 dts_time:8.68 duration:0 duration_time:0 stream_index:0
[48;5;0m[38;5;213m[mpeg @ 0xfffda4b15280] [0m[48;5;0m[38;5;196mbuffer underflow st=0 bufi=627 size=2018
[0mpts:788400 pts_time:8.76 dts:784800 dts_time:8.72 duration:0 duration_time:0 stream_index:0
[48;5;0m[38;5;213m[mpeg @ 0xfffda4b15280] [0m[48;5;0m[38;5;196mbuffer underflow st=0 bufi=641 size=2710
[0m[48;5;0m[38;5;213m[mpeg @ 0xfffda4b15280] [0m[48;5;0m[38;5;196mbuffer underflow st=0 bufi=2682 size=2710
[0mpts:792000 pts_time:8.8 dts:788400 dts_time:8.76 duration:0 duration_time:0 stream_index:0
pts:795600 pts_time:8.84 dts:792000 dts_time:8.8 duration:0 duration_time:0 stream_index:0
[48;5;0m[38;5;213m[mpeg @ 0xfffda4b15280] [0m[48;5;0m[38;5;196mbuffer underflow st=0 bufi=521 size=2415
[0mpts:799200 pts_time:8.88 dts:795600 dts_time:8.84 duration:0 duration_time:0 stream_index:0
[48;5;0m[38;5;213m[mpeg @ 0xfffda4b15280] [0m[48;5;0m[38;5;196mbuffer underflow st=0 bufi=138 size=2703
[0m[48;5;0m[38;5;213m[mpeg @ 0xfffda4b15280] [0m[48;5;0m[38;5;196mbuffer underflow st=0 bufi=2179 size=2703
[0mpts:802800 pts_time:8.92 dts:799200 dts_time:8.88 duration:0 duration_time:0 stream_index:0
[48;5;0m[38;5;213m[mpeg @ 0xfffda4b15280] [0m[48;5;0m[38;5;196mbuffer underflow st=0 bufi=1508 size=2729
[0mpts:806400 pts_time:8.96 dts:802800 dts_time:8.92 duration:0 duration_time:0 stream_index:0
[48;5;0m[38;5;213m[mpeg @ 0xfffda4b15280] [0m[48;5;0m[38;5;196mbuffer underflow st=0 bufi=811 size=1603
[0mpts:810000 pts_time:9 dts:806400 dts_time:8.96 duration:0 duration_time:0 stream_index:0
[48;5;0m[38;5;213m[mpeg @ 0xfffda4b15280] [0m[48;5;0m[38;5;196mbuffer underflow st=0 bufi=1228 size=2004
[0mpts:813600 pts_time:9.04 dts:810000 dts_time:9 duration:0 duration_time:0 stream_index:0
[48;5;0m[38;5;213m[mpeg @ 0xfffda4b15280] [0m[48;5;0m[38;5;196mbuffer underflow st=0 bufi=1256 size=2695
[0mpts:817200 pts_time:9.08 dts:813600 dts_time:9.04 duration:0 duration_time:0 stream_index:0
[48;5;0m[38;5;213m[mpeg @ 0xfffda4b15280] [0m[48;5;0m[38;5;196mbuffer underflow st=0 bufi=593 size=1623
[0mpts:820800 pts_time:9.12 dts:817200 dts_time:9.08 duration:0 duration_time:0 stream_index:0
[48;5;0m[38;5;213m[mpeg @ 0xfffda4b15280] [0m[48;5;0m[38;5;196mbuffer underflow st=0 bufi=1002 size=10079
[0m[48;5;0m[38;5;213m[mpeg @ 0xfffda4b15280] [0m[48;5;0m[38;5;196mbuffer underflow st=0 bufi=3043 size=10079
[0m[48;5;0m[38;5;213m[mpeg @ 0xfffda4b15280] [0m[48;5;0m[38;5;196mbuffer underflow st=0 bufi=5084 size=10079
[0m[48;5;0m[38;5;213m[mpeg @ 0xfffda4b15280] [0m[48;5;0m[38;5;196mbuffer underflow st=0 bufi=7125 size=10079
[0m[48;5;0m[38;5;213m[mpeg @ 0xfffda4b15280] [0m[48;5;0m[38;5;196mbuffer underflow st=0 bufi=9166 size=10079
[0mpts:824400 pts_time:9.16 dts:820800 dts_time:9.12 duration:0 duration_time:0 stream_index:0
[48;5;0m[38;5;213m[mpeg @ 0xfffda4b15280] [0m[48;5;0m[38;5;196mbuffer underflow st=0 bufi=1119 size=1908
[0mpts:828000 pts_time:9.2 dts:824400 dts_time:9.16 duration:0 duration_time:0 stream_index:0
[48;5;0m[38;5;213m[mpeg @ 0xfffda4b15280] [0m[48;5;0m[38;5;196mbuffer underflow st=0 bufi=1243 size=2482
[0mpts:831600 pts_time:9.24 dts:828000 dts_time:9.2 duration:0 duration_time:0 stream_index:0
[48;5;0m[38;5;213m[mpeg @ 0xfffda4b15280] [0m[48;5;0m[38;5;196mbuffer underflow st=0 bufi=793 size=3174
[0m[48;5;0m[38;5;213m[mpeg @ 0xfffda4b15280] [0m[48;5;0m[38;5;196mbuffer underflow st=0 bufi=2834 size=3174
[0mpts:835200 pts_time:9.28 dts:831600 dts_time:9.24 duration:0 duration_time:0 stream_index:0
pts:838800 pts_time:9.32 dts:835200 dts_time:9.28 duration:0 duration_time:0 stream_index:0
[48;5;0m[38;5;213m[mpeg @ 0xfffda4b15280] [0m[48;5;0m[38;5;196mbuffer underflow st=0 bufi=16 size=2041
[0mpts:842400 pts_time:9.36 dts:838800 dts_time:9.32 duration:0 duration_time:0 stream_index:0
[48;5;0m[38;5;213m[mpeg @ 0xfffda4b15280] [0m[48;5;0m[38;5;196mbuffer underflow st=0 bufi=7 size=3543
[0m[48;5;0m[38;5;213m[mpeg @ 0xfffda4b15280] [0m[48;5;0m[38;5;196mbuffer underflow st=0 bufi=2048 size=3543
[0mpts:846000 pts_time:9.4 dts:842400 dts_time:9.36 duration:0 duration_time:0 stream_index:0
[48;5;0m[38;5;213m[mpeg @ 0xfffda4b15280] [0m[48;5;0m[38;5;196mbuffer underflow st=0 bufi=537 size=2882
[0m[48;5;0m[38;5;213m[mpeg @ 0xfffda4b15280] [0m[48;5;0m[38;5;196mbuffer underflow st=0 bufi=2578 size=2882
[0mpts:849600 pts_time:9.44 dts:846000 dts_time:9.4 duration:0 duration_time:0 stream_index:0
[48;5;0m[38;5;213m[mpeg @ 0xfffda4b15280] [0m[48;5;0m[38;5;196mbuffer underflow st=0 bufi=1728 size=2252
[0mpts:853200 pts_time:9.48 dts:849600 dts_time:9.44 duration:0 duration_time:0 stream_index:0
[48;5;0m[38;5;213m[mpeg @ 0xfffda4b15280] [0m[48;5;0m[38;5;196mbuffer underflow st=0 bufi=1508 size=2737
[0mpts:856800 pts_time:9.52 dts:853200 dts_time:9.48 duration:0 duration_time:0 stream_index:0
[48;5;0m[38;5;213m[mpeg @ 0xfffda4b15280] [0m[48;5;0m[38;5;196mbuffer underflow st=0 bufi=803 size=2791
[0mpts:860400 pts_time:9.56 dts:856800 dts_time:9.52 duration:0 duration_time:0 stream_index:0
[48;5;0m[38;5;213m[mpeg @ 0xfffda4b15280] [0m[48;5;0m[38;5;196mbuffer underflow st=0 bufi=44 size=2452
[0m[48;5;0m[38;5;213m[mpeg @ 0xfffda4b15280] [0m[48;5;0m[38;5;196mbuffer underflow st=0 bufi=2085 size=2452
[0mpts:864000 pts_time:9.6 dts:860400 dts_time:9.56 duration:0 duration_time:0 stream_index:0
[48;5;0m[38;5;213m[mpeg @ 0xfffda4b15280] [0m[48;5;0m[38;5;196mbuffer underflow st=0 bufi=1665 size=9081
[0m[48;5;0m[38;5;213m[mpeg @ 0xfffda4b15280] [0m[48;5;0m[38;5;196mbuffer underflow st=0 bufi=3706 size=9081
[0m[48;5;0m[38;5;213m[mpeg @ 0xfffda4b15280] [0m[48;5;0m[38;5;196mbuffer underflow st=0 bufi=5747 size=9081
[0m[48;5;0m[38;5;213m[mpeg @ 0xfffda4b15280] [0m[48;5;0m[38;5;196mbuffer underflow st=0 bufi=7788 size=9081
[0mpts:867600 pts_time:9.64 dts:864000 dts_time:9.6 duration:0 duration_time:0 stream_index:0
[48;5;0m[38;5;213m[mpeg @ 0xfffda4b15280] [0m[48;5;0m[38;5;196mbuffer underflow st=0 bufi=739 size=2393
[0mpts:871200 pts_time:9.68 dts:867600 dts_time:9.64 duration:0 duration_time:0 stream_index:0
[48;5;0m[38;5;213m[mpeg @ 0xfffda4b15280] [0m[48;5;0m[38;5;196mbuffer underflow st=0 bufi=378 size=2578
[0m[48;5;0m[38;5;213m[mpeg @ 0xfffda4b15280] [0m[48;5;0m[38;5;196mbuffer underflow st=0 bufi=2419 size=2578
[0mpts:874800 pts_time:9.72 dts:871200 dts_time:9.68 duration:0 duration_time:0 stream_index:0
[48;5;0m[38;5;213m[mpeg @ 0xfffda4b15280] [0m[48;5;0m[38;5;196mbuffer underflow st=0 bufi=1873 size=2996
[0mpts:878400 pts_time:9.76 dts:874800 dts_time:9.72 duration:0 duration_time:0 stream_index:0
[48;5;0m[38;5;213m[mpeg @ 0xfffda4b15280] [0m[48;5;0m[38;5;196mbuffer underflow st=0 bufi=909 size=1584
[0mpts:882000 pts_time:9.8 dts:878400 dts_time:9.76 duration:0 duration_time:0 stream_index:0
[48;5;0m[38;5;213m[mpeg @ 0xfffda4b15280] [0m[48;5;0m[38;5;196mbuffer underflow st=0 bufi=1357 size=2348
[0mpts:885600 pts_time:9.84 dts:882000 dts_time:9.8 duration:0 duration_time:0 stream_index:0
[48;5;0m[38;5;213m[mpeg @ 0xfffda4b15280] [0m[48;5;0m[38;5;196mbuffer underflow st=0 bufi=1041 size=2818
[0mpts:889200 pts_time:9.88 dts:885600 dts_time:9.84 duration:0 duration_time:0 stream_index:0
[48;5;0m[38;5;213m[mpeg @ 0xfffda4b15280] [0m[48;5;0m[38;5;196mbuffer underflow st=0 bufi=255 size=2733
[0m[48;5;0m[38;5;213m[mpeg @ 0xfffda4b15280] [0m[48;5;0m[38;5;196mbuffer underflow st=0 bufi=2296 size=2733
[0mpts:892800 pts_time:9.92 dts:889200 dts_time:9.88 duration:0 duration_time:0 stream_index:0
pts:896400 pts_time:9.96 dts:892800 dts_time:9.92 duration:0 duration_time:0 stream_index:0
[48;5;0m[38;5;213m[mpeg @ 0xfffda4b15280] [0m[48;5;0m[38;5;196mbuffer underflow st=0 bufi=73 size=1794
[0mpts:900000 pts_time:10 dts:896400 dts_time:9.96 duration:0 duration_time:0 stream_index:0
[48;5;0m[38;5;213m[mpeg @ 0xfffda4b15280] [0m[48;5;0m[38;5;196mbuffer underflow st=0 bufi=311 size=2134
[0m